<?xml version="1.0" encoding="UTF-8"?><svg xmlns="http://www.w3.org/2000/svg" version="1.1" viewBox="0 0 1600 1584" width="1280" height="1280">
<path transform="translate(0)" d="m0 0h1600v1584h-1600v-1584z" fill="#FCFDFF"/>
<path transform="translate(600 485)" d="m0 0c1.42-0.00375 2.84-0.00835 4.26-0.0137 3.87-0.0121 7.73-0.012 11.6-0.00961 4.19 4.11e-4 8.37-0.0107 12.6-0.0201 8.19-0.0165 16.4-0.0221 24.6-0.0232 6.66-9.54e-4 13.3-0.00508 20-0.0114 18.9-0.0176 37.9-0.0268 56.8-0.0253 1.02 7.99e-5 2.04 1.6e-4 3.09 2.42e-4 1.53 1.23e-4 1.53 1.23e-4 3.09 2.48e-4 16.5 8.12e-4 33-0.0183 49.5-0.0465 17-0.0288 34-0.0425 51-0.0408 9.53 6.61e-4 19.1-0.00469 28.6-0.0264 8.11-0.0183 16.2-0.0225 24.3-0.00898 4.13 0.00647 8.26 0.00688 12.4-0.0107 40.2-0.16 76.9 6.63 111 29.5 1.09 0.723 2.19 1.45 3.32 2.19 5.56 3.71 10.7 7.45 15.3 12.4 1.45 1.6 1.45 1.6 3.8 3.25 0.516 0.392 1.03 0.784 1.56 1.19v2c0.99 0.33 1.98 0.66 3 1 28.9 26.5 40.3 67.1 46 104v139h-542c0-5 1.91-6.56 5.19-9.94 0.483-0.512 0.966-1.02 1.46-1.55 2.26-2.38 4.55-4.71 6.88-7.03 2.68-2.69 5.23-5.48 7.78-8.3 3.85-4.23 7.78-8.32 11.9-12.3 2.47-2.51 4.74-5.18 7.04-7.85 2.52-2.83 5.23-5.46 7.94-8.12 1.65-1.69 3.14-3.41 4.6-5.27 3.02-3.52 4.78-4.51 9.43-4.87 1.27 7.59e-4 2.54 0.00152 3.85 0.0023 0.712-0.00231 1.42-0.00462 2.16-0.00699 2.4-0.00532 4.8 0.0037 7.19 0.0126 1.73-8.72e-4 3.46-0.00262 5.2-0.00518 4.77-0.00448 9.54 0.00354 14.3 0.0136 5.14 0.00862 10.3 0.00572 15.4 0.0042 8.91-0.00105 17.8 0.00524 26.7 0.0165 12.9 0.0162 25.8 0.0215 38.6 0.024 20.9 0.00438 41.8 0.0177 62.7 0.0366 20.3 0.0184 40.6 0.0325 60.9 0.041 1.88 7.88e-4 1.88 7.88e-4 3.79 0.00159 6.27 0.00261 12.5 0.00514 18.8 0.00762 52.1 0.0207 104 0.056 156 0.101-0.0618-8.56-0.139-17.1-0.236-25.7-0.0443-3.97-0.0836-7.95-0.111-11.9-0.265-37.7-5.18-69.9-31.9-98.2-20.9-20.2-48.9-27.6-77.3-27.5-1.4-0.00231-2.79-0.00549-4.19-0.00945-3.79-0.00826-7.59-0.00426-11.4 0.00197-4.11 0.00456-8.22-0.00248-12.3-0.00796-8.03-0.00886-16.1-0.00699-24.1-0.00117-6.53 0.00453-13.1 0.00512-19.6 0.00295-0.932-3.06e-4 -1.86-6.13e-4 -2.82-9.29e-4 -1.89-6.39e-4 -3.79-0.00129-5.68-0.00195-17.7-0.00569-35.5 8.38e-4 -53.2 0.0116-15.2 0.00894-30.4 0.00738-45.6-0.00184-17.7-0.0107-35.3-0.0149-53-0.00878-1.89 6.37e-4 -3.77 0.00127-5.66 0.00189-0.928 3.09e-4 -1.86 6.17e-4 -2.81 9.35e-4 -6.52 0.00172-13-0.00118-19.6-0.00589-7.95-0.00563-15.9-0.00405-23.8 0.00656-4.05 0.00523-8.1 0.00736-12.2 7.02e-4 -3.72-0.00601-7.43-0.0026-11.1 0.00796-1.96 0.00325-3.92-0.00319-5.89-0.0101-11.6 0.0504-22.9 1.18-33.8 5.02-0.76 0.26-1.52 0.519-2.3 0.786-5.97 2.12-11.2 4.89-16.4 8.46-4.72 3-4.72 3-7 3v2c-1.42 0.971-2.85 1.94-4.3 2.86-5.03 3.37-9.35 7.95-13.7 12.1-0.727 0.7-1.45 1.4-2.2 2.12-20.4 21.3-26 50.1-25.9 78.5-0.00136 1.67-0.00314 3.33-0.00531 5-0.00454 4.5-0.0028 9.01 3.79e-4 13.5 0.00255 4.74 1.79e-4 9.49-0.00139 14.2-0.00182 7.98 5.7e-4 16 0.00534 23.9 0.00541 9.16 0.0037 18.3-0.00183 27.5-0.00458 7.91-0.00516 15.8-0.00256 23.7 0.00154 4.7 0.00182 9.41-0.00154 14.1-0.247 36.3-0.247 36.3 2.32 72.5 0.126 1.09 0.252 2.19 0.382 3.31 6.47 52.6 24 107 54.1 151 1.28 1.88 2.52 3.78 3.76 5.69 8.39 12.9 17.5 25.4 28.1 36.6 1.95 2.09 3.82 4.21 5.69 6.37 3.83 4.39 7.86 8.54 12 12.7 0.747 0.746 1.49 1.49 2.26 2.26 5.57 5.51 11.3 10.5 17.5 15.3 1.67 1.39 3.33 2.79 5 4.19 44.6 36.3 94.2 62.4 153 56.8 16.8-1.78 32.8-7.28 48.2-14.1 1.63-0.721 1.63-0.721 3.29-1.46 15.1-6.78 29.1-15 42.8-24.2 1.52-1.02 3.05-2.02 4.58-3.03 7.58-5.09 14.4-11.1 21.2-17.2 0.936-0.822 1.87-1.64 2.84-2.49 4.59-4.08 8.99-8.29 13.3-12.7 1.75-1.71 3.54-3.28 5.43-4.83 3.26-2.73 5.95-5.77 8.69-9 1.65-1.89 3.38-3.63 5.18-5.37 4.27-4.22 7.87-8.9 11.6-13.6 0.866-1.08 1.73-2.15 2.6-3.23 6.66-8.28 12.7-16.8 18.4-25.8 0.411-0.637 0.822-1.27 1.25-1.93 8.85-13.7 17.3-27.8 23.5-42.9 1.18-2.87 2.46-5.66 3.79-8.46 3.01-6.59 5.37-13.4 7.68-20.3 0.557-1.65 1.12-3.31 1.69-4.96 5.39-15.8 9.14-31.7 11.9-48.1 0.121-0.685 0.243-1.37 0.368-2.07 0.307-1.75 0.588-3.51 0.866-5.27 2.21-6.9 7.82-10.7 13.5-14.8 1.43-1.05 2.85-2.1 4.28-3.15 0.709-0.519 1.42-1.04 2.15-1.57 3.06-2.26 6.07-4.58 9.07-6.9 3.95-3.06 7.93-6.08 11.9-9.08 2.01-1.51 4.02-3.03 6.03-4.55 6.88-5.2 13.7-10.4 21-15 0.99 0.66 1.98 1.32 3 2-3.5 44.9-8.44 88.4-23.1 131-0.782 2.3-1.54 4.6-2.28 6.92-10.1 30.8-25.1 61.2-43.6 87.7l-1.28 1.85c-5.56 8.01-11.4 15.8-17.4 23.5-1.39 1.78-2.76 3.57-4.14 5.36-8.41 10.9-8.41 10.9-13.5 15.6-1.7 1.67-3.23 3.4-4.77 5.22-4.53 5.21-9.38 10.1-14.3 15-0.906 0.918-1.81 1.84-2.74 2.78-1.3 1.3-1.3 1.3-2.62 2.62-0.783 0.787-1.57 1.57-2.37 2.38-1.95 1.71-1.95 1.71-3.95 1.71-0.33 0.99-0.66 1.98-1 3-2.01 1.84-2.01 1.84-4.69 3.94-3.87 3.08-7.66 6.21-11.4 9.47-6.3 5.51-12.8 10.5-19.7 15.3-2.86 1.99-5.63 4.06-8.4 6.16-8.24 5.98-17.1 11.1-25.9 16.1-1.52 0.872-1.52 0.872-3.06 1.76-15.2 8.64-30.4 15.7-46.9 21.2-0.776 0.261-1.55 0.522-2.35 0.791-23.8 7.88-49.2 10.8-74.1 12-1.39 0.0671-1.39 0.0671-2.8 0.135-6.37 0.245-6.37 0.245-9.76-0.885-2.04-0.178-4.08-0.319-6.12-0.438-4.61-0.33-8.93-0.856-13.4-1.98-1.86-0.439-3.73-0.804-5.61-1.13-32.7-5.78-64-21.8-91.9-39.4-0.58-0.367-1.16-0.734-1.76-1.11-10.9-6.97-21.1-14.8-31.2-22.9-0.982-0.777-1.96-1.55-2.98-2.36-2.35-1.87-4.69-3.75-7.02-5.64-1.33-1.07-1.33-1.07-2.69-2.16-0.927-0.75-1.85-1.5-2.81-2.27-0.815-0.659-1.63-1.32-2.47-2-7.94-6.72-15.5-13.8-22.8-21.2-1.42-1.43-2.85-2.85-4.28-4.28-5.19-5.2-10.2-10.5-14.9-16.1-0.889-1.02-1.78-2.04-2.67-3.06-16.6-19.3-32.4-40.4-44.3-62.9-0.757-1.4-1.52-2.79-2.27-4.19-35.4-65.7-53.8-136-53.9-210-0.00464-1.9-0.00967-3.8-0.015-5.7-0.013-5.11-0.0195-10.2-0.024-15.3-0.00295-3.2-0.00706-6.41-0.0115-9.61-0.0136-10.1-0.0233-20.1-0.0272-30.2-0.00448-11.5-0.022-23.1-0.051-34.6-0.0217-8.98-0.0317-18-0.033-26.9-0.00104-5.34-0.00677-10.7-0.0248-16-0.0167-5.03-0.0185-10.1-0.00986-15.1 7.6e-4 -1.83-0.00344-3.65-0.0135-5.48-0.103-19.9 2.41-38.7 9.37-57.4 0.516-1.41 0.516-1.41 1.04-2.84 12.3-33 34.3-61.6 63-82.2 0.54-0.39 1.08-0.78 1.64-1.18 27.9-19.8 63-30.2 97-30.1z" fill="#9333ea"/>
<path transform="translate(1084,828)" d="m0 0c0.99 0.66 1.98 1.32 3 2-3.5 44.9-8.44 88.4-23.1 131-0.782 2.3-1.54 4.6-2.28 6.92-10.1 30.8-25.1 61.2-43.6 87.7-0.421 0.609-0.842 1.22-1.28 1.85-5.56 8.01-11.4 15.8-17.4 23.5-1.39 1.78-2.76 3.57-4.14 5.36-8.41 10.9-8.41 10.9-13.5 15.6-1.7 1.67-3.23 3.4-4.77 5.22-4.53 5.21-9.38 10.1-14.3 15-0.906 0.918-1.81 1.84-2.74 2.78-0.864 0.866-1.73 1.73-2.62 2.62-0.783 0.787-1.57 1.57-2.37 2.38-1.95 1.71-1.95 1.71-3.95 1.71-0.33 0.99-0.66 1.98-1 3-2.01 1.84-2.01 1.84-4.69 3.94-3.87 3.08-7.66 6.21-11.4 9.47-6.3 5.51-12.8 10.5-19.7 15.3-2.86 1.99-5.63 4.06-8.4 6.16-8.24 5.98-17.1 11.1-25.9 16.1-1.52 0.872-1.52 0.872-3.06 1.76-15.2 8.64-30.4 15.7-46.9 21.2-1.16 0.392-1.16 0.392-2.35 0.791-23.8 7.88-49.2 10.8-74.1 12-0.924 0.0447-1.85 0.0894-2.8 0.135-6.37 0.245-6.37 0.245-9.76-0.885-2.04-0.178-4.08-0.319-6.12-0.438-4.61-0.33-8.93-0.856-13.4-1.98-1.86-0.439-3.73-0.804-5.61-1.13-32.7-5.78-64-21.8-91.9-39.4-0.58-0.367-1.16-0.734-1.76-1.11-10.9-6.97-21.1-14.8-31.2-22.9-0.982-0.777-1.96-1.55-2.98-2.36-2.35-1.87-4.69-3.75-7.02-5.64-0.888-0.714-1.78-1.43-2.69-2.16-0.927-0.75-1.85-1.5-2.81-2.27-0.815-0.659-1.63-1.32-2.47-2-7.94-6.72-15.5-13.8-22.8-21.2-1.42-1.43-2.85-2.85-4.28-4.28-5.19-5.2-10.2-10.5-14.9-16.1-0.889-1.02-1.78-2.04-2.67-3.06-16.6-19.3-32.4-40.4-44.3-62.9-0.757-1.4-1.52-2.79-2.27-4.19-8.71-16.2-16.9-32.7-24-49.6-0.296-0.681-0.592-1.36-0.897-2.06-1.11-2.71-1.86-4.64-1.46-7.57 0.22-0.512 0.441-1.02 0.668-1.55 0.66 0.66 1.32 1.32 2 2 0.33-0.33 0.66-0.66 1-1 2-0.0408 4-0.0425 6 0-0.33 0.99-0.66 1.98-1 3 0.482 0.364 0.964 0.727 1.46 1.1 4.17 3.32 6.29 5.55 7.54 10.9l1.12 2.69c0.875 2.31 0.875 2.31 0.875 5.31h2c0.619 1.7 0.619 1.7 1.25 3.44 1.47 3.96 3.18 7.77 4.98 11.6 0.77 1.98 0.77 1.98 0.77 4.98 0.99 0.33 1.98 0.66 3 1 1.12 1.78 1.12 1.78 2.16 4.08 0.383 0.831 0.766 1.66 1.16 2.52 0.586 1.31 0.586 1.31 1.18 2.65 0.779 1.71 1.56 3.43 2.34 5.14 0.369 0.806 0.737 1.61 1.12 2.44 1.19 2.49 2.59 4.82 4.04 7.17 0.33 0.99 0.66 1.98 1 3 0.578 0.557 1.16 1.11 1.75 1.69 3.05 3.13 7.25 7.75 7.25 12.3h2c4 5.41 4 5.41 4 8h2c1.45 1.74 2.81 3.54 4.12 5.38 0.724 0.998 1.45 2 2.2 3.02 1.68 2.6 1.68 2.6 1.68 4.6 0.598 0.24 1.2 0.48 1.81 0.727 2.64 1.54 3.6 3.05 5.19 5.65 2.09 3.29 4.14 5.96 7 8.62 4 4.67 4 4.67 4 7h3c0.433 1.11 0.866 2.23 1.31 3.38 1.39 3.8 1.39 3.8 4.69 5.62 0.248 0.681 0.495 1.36 0.75 2.06 0.412 0.639 0.825 1.28 1.25 1.94 1.13 0.144 2.27 0.289 3.44 0.438 1.18 0.186 2.35 0.371 3.56 0.562 1.5 2.19 1.5 2.19 3 5 1.13 1.04 2.3 2.04 3.5 3 2.95 2.41 4.58 4.69 6.5 8 1.66 1.35 3.32 2.68 5 4v2c0.54 0.242 1.08 0.485 1.64 0.734 2.95 1.58 5.5 3.5 8.18 5.52 0.53 0.399 1.06 0.798 1.61 1.21 2.97 2.25 5.85 4.58 8.64 7.04 2.73 2.64 2.73 2.64 5.94 3.5 0.639 0.866 1.28 1.73 1.94 2.62 3.3 4.25 7.95 6.36 12.6 8.86 0.808 0.5 1.62 1 2.45 1.52v2c0.705 0.266 1.41 0.531 2.14 0.805 3.02 1.26 5.82 2.73 8.68 4.32l2.96 1.63c1.1 0.615 1.1 0.615 2.23 1.24v2c4.45 1.49 4.45 1.49 9 3v2c2.97 0.33 5.94 0.66 9 1 0.33 0.99 0.66 1.98 1 3 1.14-0.0619 1.14-0.0619 2.31-0.125 2.69 0.125 2.69 0.125 5.69 2.12 1.66 0.385 3.32 0.728 5 1v2h2c0.33 0.66 0.66 1.32 1 2 2.34 0.468 4.7 0.827 7.06 1.12 1.29 0.168 2.58 0.335 3.91 0.508 0.999 0.121 2 0.242 3.03 0.367v1c0.893 0.083 0.893 0.083 1.8 0.168 2.69 0.252 5.38 0.511 8.07 0.77 0.937 0.087 1.87 0.174 2.84 0.264 0.896 0.087 1.79 0.174 2.71 0.264 0.827 0.0786 1.65 0.157 2.51 0.238 2.06 0.297 2.06 0.297 4.06 1.3v2c3.91 1.47 3.91 1.47 8 2v2c0.675-0.0116 1.35-0.0232 2.05-0.0352 1.34-0.0135 1.34-0.0135 2.7-0.0273 0.882-0.0116 1.76-0.0232 2.67-0.0352 2.36 0.0894 4.32 0.429 6.58 1.1v2h5v-2c3.84-1.38 7.03-0.605 11 0 1.24-0.0206 2.48-0.0412 3.75-0.0625 3.25 0.0625 3.25 0.0625 6.25 2.06 2.44 0.42 2.44 0.42 5.06 0.562 4.75 0.341 4.75 0.341 6.94 1.44v-2h5v-2h2v2h3v-2h2v2h2v-2h4c-0.206-0.598-0.412-1.2-0.625-1.81-0.375-2.19-0.375-2.19 1.62-5.19 1.7-0.719 3.4-1.43 5.12-2.11 2.03-0.967 3.5-2.11 5.19-3.58 2.69-2.31 2.69-2.31 4.69-2.31 1.58-1.42 1.58-1.42 3-3l1-1c1.3-2.91 2-4.78 2-8 0.99-0.33 1.98-0.66 3-1v-3h5c0.33-0.66 0.66-1.32 1-2-1.03 0.165-2.06 0.33-3.12 0.5-3.36 0.433-6.5 0.582-9.88 0.5 0.33 0.99 0.66 1.98 1 3-1.77 0.195-3.54 0.381-5.31 0.562-0.986 0.104-1.97 0.209-2.99 0.316-2.7 0.121-2.7 0.121-5.7-0.879l-2-2c-2.6 0.32-2.6 0.32-5 1v2c-4.29 0.33-8.58 0.66-13 1v1h-7v-2c-1.11 0.143-1.11 0.143-2.24 0.289-6.45 0.705-12 0.626-18.3-0.816-2.49-0.594-2.49-0.594-5.1-0.227-0.782-0.0812-1.56-0.162-2.37-0.246-0.471-0.788-0.941-1.58-1.43-2.39-1.37-2.88-1.37-2.88-4.49-3.76-1.08-0.22-2.16-0.441-3.27-0.668-1.09-0.233-2.17-0.467-3.29-0.707-0.831-0.159-1.66-0.317-2.52-0.48-0.33 0.66-0.66 1.32-1 2-0.619-0.186-1.24-0.371-1.88-0.562-2.17-0.674-2.17-0.674-4.12 0.562v-3c-1.32-0.33-2.64-0.66-4-1v-2c-0.664 0.0464-1.33 0.0928-2.01 0.141-7.28 0.298-7.28 0.298-10.9-1.95-0.681-0.722-1.36-1.44-2.06-2.19-2.21-2.3-4.07-3.69-7-5v-2c-2.33-1.16-4.71-2.1-7.12-3.06-0.91-0.362-1.82-0.724-2.76-1.1-0.699-0.277-1.4-0.554-2.12-0.84v-2c-1.11 0.0619-1.11 0.0619-2.25 0.125-2.84-0.129-4.34-0.696-6.75-2.12v-2h-2v-2h-5c-0.33-0.99-0.66-1.98-1-3-2.1-1.02-2.1-1.02-4.56-1.69-0.826-0.251-1.65-0.503-2.5-0.762-0.638-0.182-1.28-0.364-1.93-0.551v-4c-1.32 0.33-2.64 0.66-4 1-0.33-1.32-0.66-2.64-1-4-0.949-0.124-1.9-0.247-2.88-0.375-3.12-0.625-3.12-0.625-5.12-2.62-0.66-0.33-1.32-0.66-2-1-0.99-1.49-0.99-1.49-2-3-1.88-1.07-1.88-1.07-4-2-1.41-0.814-2.8-1.65-4.19-2.5-0.695-0.423-1.39-0.846-2.11-1.28-1.71-1.22-1.71-1.22-2.71-3.22h2v-2c-2.31-0.33-4.62-0.66-7-1v-3c-1.39-0.371-1.39-0.371-2.81-0.75-3.37-1.32-4.45-2.16-6.19-5.25v-2c-1.65-0.33-3.3-0.66-5-1v-2c-0.557-0.227-1.11-0.454-1.69-0.688-2.96-1.68-4.97-3.85-7.31-6.31l-1.69-1.56c-1.53-1.67-2.33-3.41-3.31-5.44-2.03-2.16-2.03-2.16-5-4 0.33-0.99 0.66-1.98 1-3-0.474-0.412-0.949-0.825-1.44-1.25-1.75-1.96-1.99-3.24-2.56-5.75-1.97-1.97-3.3-2.74-5.88-3.69-3.15-1.95-4.45-4.03-6.12-7.31 0.207-6.21 0.207-6.21 3-9 2.02 2.17 4.04 4.33 6.06 6.5 0.561 0.601 1.12 1.2 1.7 1.82 2.94 3.16 5.83 6.35 8.65 9.62 3.78 4.34 7.76 8.43 11.8 12.5 0.747 0.746 1.49 1.49 2.26 2.26 5.57 5.51 11.3 10.5 17.5 15.3 1.67 1.39 3.33 2.79 5 4.19 44.6 36.3 94.2 62.4 153 56.8 16.8-1.78 32.8-7.28 48.2-14.1 1.63-0.721 1.63-0.721 3.29-1.46 15.1-6.78 29.1-15 42.8-24.2 1.52-1.02 3.05-2.02 4.58-3.03 7.58-5.09 14.4-11.1 21.2-17.2 0.936-0.822 1.87-1.64 2.84-2.49 4.59-4.08 8.99-8.29 13.3-12.7 1.75-1.71 3.54-3.28 5.43-4.83 3.26-2.73 5.95-5.77 8.69-9 1.65-1.89 3.38-3.63 5.18-5.37 4.27-4.22 7.87-8.9 11.6-13.6 0.866-1.08 1.73-2.15 2.6-3.23 6.66-8.28 12.7-16.8 18.4-25.8 0.411-0.637 0.822-1.27 1.25-1.93 8.85-13.7 17.3-27.8 23.5-42.9 1.18-2.87 2.46-5.66 3.79-8.46 3.01-6.59 5.37-13.4 7.68-20.3 0.557-1.65 1.12-3.31 1.69-4.96 5.39-15.8 9.14-31.7 11.9-48.1 0.121-0.685 0.243-1.37 0.368-2.07 0.307-1.75 0.588-3.51 0.866-5.27 2.21-6.9 7.82-10.7 13.5-14.8 1.43-1.05 2.85-2.1 4.28-3.15 0.709-0.519 1.42-1.04 2.15-1.57 3.06-2.26 6.07-4.58 9.07-6.9 3.95-3.06 7.93-6.08 11.9-9.08 2.01-1.51 4.02-3.03 6.03-4.55 6.88-5.2 13.7-10.4 21-15z" fill="#9333ea"/>
<path transform="translate(507,545)" d="m0 0c2.64 0.33 5.28 0.66 8 1 1.43 6.7 0.591 10.2-3 16 0.66 0.33 1.32 0.66 2 1-0.66 0.33-1.32 0.66-2 1-1.49-0.495-1.49-0.495-3-1 0.968 3.8 0.968 3.8 3 7 0.687 4.81-1.2 7.21-4 11-0.66 0.99-1.32 1.98-2 3-0.33-0.99-0.66-1.98-1-3-1.13 1.83-1.13 1.83-2 4 0.33 0.99 0.66 1.98 1 3h-2v3h-3v2c1.65 0.33 3.3 0.66 5 1v2h2v2c-0.99 0.495-0.99 0.495-2 1 0.371 0.516 0.743 1.03 1.12 1.56 1.81 5.05-1.35 9.99-3.5 14.6-7.64 16.5-8.94 33.2-8.87 51.1-0.00108 1.67-0.00302 3.33-0.00575 5-0.0048 4.48 0.00275 8.96 0.013 13.4 0.00888 4.73 0.00702 9.46 0.00664 14.2 9.34e-4 7.95 0.00957 15.9 0.0233 23.9 0.0157 9.12 0.021 18.2 0.0203 27.4-6.82e-4 9.79 0.0063 19.6 0.0154 29.4 0.00211 2.78 0.00284 5.57 0.00324 8.35-0.217 36.2-0.217 36.2 2.35 72.3 0.126 1.09 0.252 2.19 0.382 3.31 6.47 52.6 24 107 54.1 151 1.32 1.94 2.6 3.89 3.87 5.85 4.91 7.53 4.91 7.53 10.3 14.7 0.469 0.581 0.938 1.16 1.42 1.76 1.3 1.59 2.63 3.16 3.96 4.72 1.74 2.9 1.74 2.9 1.51 6.27-0.254 0.868-0.508 1.74-0.77 2.63h-2v3c0.66 0.33 1.32 0.66 2 1v2c1.21 2.14 1.21 2.14 3 4 0.619 0.144 1.24 0.289 1.88 0.438 3.39 0.896 4.95 2.91 7.12 5.56 0.312 2.81 0.312 2.81 0 5 0.99 0.33 1.98 0.66 3 1-0.66 0.99-1.32 1.98-2 3h4c0.247 0.536 0.495 1.07 0.75 1.62 2.74 5.22 5.99 9.32 10.2 13.4 1.27 1.36 1.27 1.36 2.56 2.75 2.47 2.28 3.35 2.53 6.44 3.25 1.04 1.3 2.04 2.64 3 4 1.31 1.03 2.65 2.03 4 3 0.495 0.536 0.99 1.07 1.5 1.62 1.79 1.64 3.14 1.92 5.5 2.38 0.66 0.33 1.32 0.66 2 1v4c1.83 1.77 1.83 1.77 4.25 3.19 1.18 0.764 1.18 0.764 2.39 1.54 2.25 1.35 2.25 1.35 4.53 1.76 1.83 0.512 1.83 0.512 3.83 3.51 2.07 1.24 3.74 1.95 6.12 2.38 1.88 0.625 1.88 0.625 3.12 2.69 0.247 0.639 0.495 1.28 0.75 1.94h3c0.0825 0.626 0.165 1.25 0.25 1.9 0.538 2.25 0.538 2.25 2.56 3.08 0.722 0.214 1.44 0.428 2.19 0.648 2.19 0.664 2.19 0.664 4 1.38 0.33 0.66 0.66 1.32 1 2 2.53 0.656 2.53 0.656 5 1v2h2v2c2.97 0.66 5.94 1.32 9 2v2c0.759 0.159 1.52 0.317 2.3 0.48 8.27 1.94 8.27 1.94 10.6 5.14 0.351 0.784 0.701 1.57 1.06 2.38 2.07 0.643 2.07 0.643 4 1 0.33 0.99 0.66 1.98 1 3 3.73 2.31 7.37 2.93 11.7 3.44 1.09 0.186 2.19 0.371 3.31 0.562 0.33 0.66 0.66 1.32 1 2 1.94 0.951 1.94 0.951 4.25 1.69 0.768 0.272 1.54 0.544 2.33 0.824 2.8 0.565 4.64 0.047 7.42-0.512 2.61 0.418 2.61 0.418 5.19 1.19 0.86 0.241 1.72 0.482 2.61 0.73 2.21 1.08 2.21 1.08 3.22 3.15 0.325 0.637 0.65 1.27 0.984 1.93 2.11 0.67 2.11 0.67 4.56 0.688 0.896 0.0541 1.79 0.108 2.71 0.164 0.898 0.049 1.8 0.098 2.72 0.148 1.54 0.177 3.08 0.364 4.62 0.562 4.15 0.473 8.2 0.513 12.4 0.438v2c1.98-0.33 3.96-0.66 6-1v-1h14v-2h-9v-1c5.28-0.33 10.6-0.66 16-1v3c4.29-0.33 8.58-0.66 13-1v-2c4.39-0.857 8.53-1.09 13-1-0.33 0.99-0.66 1.98-1 3h-4c-0.33 0.99-0.66 1.98-1 3-0.66 0.33-1.32 0.66-2 1-0.606 2.36-0.606 2.36-1 5-0.325 1.34-0.655 2.67-1 4h-3c-1.02 0.976-2.02 1.98-3 3-1.66 1.01-3.33 2.01-5 3-0.846 0.722-1.69 1.44-2.56 2.19-2.44 1.81-2.44 1.81-6.44 1.81-0.33 2.31-0.66 4.62-1 7h-4v2h-2v-2h-2v2h-3v-2h-2v2h-5v2c-1.92-0.115-3.83-0.242-5.75-0.375-1.6-0.104-1.6-0.104-3.23-0.211-3.02-0.414-3.02-0.414-5.07-1.45-2.56-1.27-4.48-1.13-7.32-1.03-4.01 0.0806-7.68-0.0845-11.6-0.938v2h-5v-2c-0.592 0.0116-1.18 0.0232-1.79 0.0352-4.21 0.0481-8.1 0.0249-12.2-1.04v-2c-0.99 0.33-1.98 0.66-3 1-2.69-1.31-2.69-1.31-5-3v-2c-0.681-0.0501-1.36-0.1-2.06-0.152-3.08-0.232-6.17-0.477-9.25-0.723-1.07-0.0786-2.14-0.157-3.25-0.238-1.03-0.0838-2.06-0.168-3.12-0.254-0.948-0.0733-1.9-0.147-2.87-0.222-2.45-0.411-2.45-0.411-5.45-2.41-2.51-0.456-2.51-0.456-5.19-0.625-0.901-0.0748-1.8-0.15-2.73-0.227-0.687-0.049-1.37-0.098-2.08-0.148-0.33-0.99-0.66-1.98-1-3h-2v-2l-3.12-0.375c-3.52-0.567-6.58-1.29-9.88-2.62-0.33-0.66-0.66-1.32-1-2-2.09-0.613-2.09-0.613-4.5-1-2.47-0.438-2.47-0.438-4.5-1-0.33-0.66-0.66-1.32-1-2-1.85-0.83-1.85-0.83-4-1.5-2.19-0.719-2.19-0.719-4-1.5-0.33-0.66-0.66-1.32-1-2-1.93-1.06-3.89-2.05-5.88-3-3.21-1.55-6.16-3.02-9.12-5v-2c-0.66-0.227-1.32-0.454-2-0.688-3.89-1.7-7.64-3.71-11-6.31v-2c-1.32-0.66-2.64-1.32-4-2v-2c-0.536-0.0619-1.07-0.124-1.62-0.188-2.75-0.94-4.43-2.49-6.62-4.35-3.83-3.18-7.91-6.06-11.9-9-3.94-2.92-7.45-5.91-10.8-9.46-0.598-0.536-1.2-1.07-1.81-1.62-1.19-1.38-1.19-1.38-1.19-4.38-0.536-0.206-1.07-0.412-1.62-0.625-3.28-1.9-6.07-4.35-8.38-7.38v-3c-1.64 0.155-1.64 0.155-3.31 0.312-1.22-0.103-2.43-0.206-3.69-0.312-1.69-2.25-1.69-2.25-3-5-0.701-0.66-1.4-1.32-2.12-2-2.18-2.33-2.53-3.87-2.88-7h-3c-1.61-1.68-1.61-1.68-3.19-3.88-0.53-0.719-1.06-1.44-1.61-2.18-1.21-1.95-1.21-1.95-1.21-3.95-0.599-0.241-1.2-0.482-1.82-0.73-2.63-1.53-3.55-3-5.12-5.58-2.36-3.72-4.9-6.6-8.06-9.69-5-6.28-5-6.28-5-9h-2c-4-5.41-4-5.41-4-8h-2c-1.73-2.34-1.73-2.34-3.62-5.38-0.632-0.998-1.26-2-1.91-3.02-1.46-2.6-1.46-2.6-1.46-4.6-0.99-0.33-1.98-0.66-3-1-0.754-1.63-1.49-3.26-2.15-4.93-1.54-3.75-3.55-7.26-5.48-10.8-0.807-1.49-1.61-2.99-2.41-4.48-0.353-0.652-0.705-1.3-1.07-1.98-0.892-1.79-0.892-1.79-1.89-4.79-0.66-0.33-1.32-0.66-2-1-0.9-1.91-1.72-3.85-2.5-5.81-1.67-4.24-1.67-4.24-3.66-8.32-0.844-1.86-0.844-1.86-0.844-5.86h-2c-0.254-0.759-0.508-1.52-0.77-2.3-0.344-0.994-0.688-1.99-1.04-3.01-0.336-0.986-0.673-1.97-1.02-2.99-1.14-2.64-2.17-3.74-4.17-5.7-0.625-1.88-0.625-1.88-1-4-1.65-8.28-3.98-16.1-7.06-23.9-2.29-5.85-3.68-11.3-4.51-17.6-0.548-3.17-1.97-5.61-3.43-8.46-2.31-8.47-6.03-26.9-2-35-0.226-2.69-0.515-5.33-0.875-8-0.0915-0.737-0.183-1.47-0.277-2.23-0.473-4.01-0.473-4.01-1.85-7.77 0.33-0.99 0.66-1.98 1-3-0.236-1.59-0.477-3.17-0.742-4.75-0.541-4.72-0.328-9.5-0.258-14.2-0.66-0.33-1.32-0.66-2-1 0.33-0.66 0.66-1.32 1-2 0.046-1.14 0.046-1.14-0.492-2.71-0.593-2.67-0.64-5.11-0.633-7.85-0.00258-0.95-0.00516-1.9-0.00781-2.88 0.133-2.56 0.133-2.56 1.13-5.56 0.0694-3.13-0.00241-6.25-0.0625-9.38 0.0576-3.33 0.407-6.54 0.804-9.85 0.583-6.26 0.645-12.6 0.821-18.8 0.0433-1.45 0.0869-2.9 0.131-4.36 0.106-3.53 0.208-7.05 0.307-10.6-0.66-0.33-1.32-0.66-2-1-0.199-4.29-0.382-8.58-0.562-12.9-0.0561-1.2-0.112-2.41-0.17-3.65-0.623-15.3-0.623-15.3 1.27-22.5 0.71-2.98 0.526-5.91 0.467-8.96-0.99-0.33-1.98-0.66-3-1 0.186-0.598 0.371-1.2 0.562-1.81 0.658-2.35 0.658-2.35-0.562-5.19h2v-5h-3c-0.0251-4.98-0.0431-9.95-0.0549-14.9-0.00496-1.69-0.0117-3.37-0.0205-5.06-0.0504-9.94 0.128-19.8 0.859-29.7 0.182-2.78 0.259-5.52 0.217-8.3h2v-5h1v10h1c0.0198-1.08 0.0396-2.16 0.0601-3.27 0.076-4 0.165-8 0.257-12 0.0383-1.73 0.0732-3.46 0.104-5.2 0.0456-2.49 0.104-4.97 0.164-7.46 0.0173-1.17 0.0173-1.17 0.035-2.35 0.151-5.49 0.151-5.49 2.38-7.72h2c-0.66-0.33-1.32-0.66-2-1 1.4-7.4 1.4-7.4 3-9 0.364-1.66 0.7-3.33 1-5h2c0.33-0.66 0.66-1.32 1-2-0.66-0.33-1.32-0.66-2-1 0.33-0.66 0.66-1.32 1-2 2.56-0.625 2.56-0.625 5-1 0.33-1.65 0.66-3.3 1-5 0.66 0.33 1.32 0.66 2 1 1.84-3.78 2.16-5.95 1-10 0.959-0.34 0.959-0.34 1.94-0.688 2.33-1.17 2.33-1.17 2.81-3.94 0.124-1.18 0.124-1.18 0.25-2.38 0.33 0.66 0.66 1.32 1 2h2v-7c1.32-0.66 2.64-1.32 4-2v-4h2c0.33-0.66 0.66-1.32 1-2l1-1v-2c1.65-0.33 3.3-0.66 5-1v-3c1.65-0.66 3.3-1.32 5-2v-3c0.33-0.66 0.66-1.32 1-2 2.65-0.594 5.29-0.742 8-1-0.495-1.49-0.495-1.49-1-3h7v-2z" fill="#9333ea"/>
<path transform="translate(634,216)" d="m0 0c4.65 2.72 7.69 5.81 11.1 9.93 1.83 2.06 3.75 3.8 5.85 5.57 2.61 2.22 4.92 4.45 7.12 7.06 7.37 8.67 15.7 17 24.5 24.1 1.36 1.33 1.36 1.33 2.36 4.33 1.32 0.691 2.66 1.36 4 2 1.42 1.48 1.42 1.48 2.75 3.19 2.88 3.53 6.09 6.36 9.61 9.23 1.64 1.58 1.64 1.58 2.64 4.58h2v2h2v2c6.01 3.1 11.3 1.23 17.6-0.485 9.91-2.66 19.4-3.13 29.6-3.04 2.69 0.0214 5.39 7.1e-5 8.08-0.0254 10.4-0.0151 19.9 1.02 29.9 3.59 1.25 0.315 2.5 0.63 3.78 0.955 0.967 0.269 1.93 0.539 2.93 0.816 3.13 0.495 3.13 0.495 5.53-1.44 1.2-1.23 1.2-1.23 2.43-2.48 0.918-0.922 1.84-1.84 2.78-2.79 0.985-1.02 1.97-2.05 2.95-3.07 1.03-1.04 2.06-2.08 3.09-3.12 2.71-2.74 5.4-5.51 8.09-8.27 3.25-3.34 6.52-6.66 9.78-9.98 2.55-2.59 5.09-5.18 7.62-7.78 4.76-4.88 9.56-9.51 14.8-13.9 1.18-1.28 2.34-2.59 3.44-3.94 2.98-3.51 6.2-6.48 9.7-9.46 2.42-2.09 4.63-4.31 6.86-6.6 0.66-0.66 1.32-1.32 2-2 3.3 0.174 4.76 0.801 7.31 2.94 1.69 2.06 1.69 2.06 1.69 4.06 0.817 0.332 0.817 0.332 1.65 0.671 3.1 1.75 5.45 4.11 7.96 6.6 0.525 0.518 1.05 1.04 1.59 1.57 1.1 1.09 2.21 2.19 3.31 3.29 1.68 1.68 3.38 3.34 5.08 5 1.07 1.07 2.15 2.14 3.22 3.21 0.507 0.493 1.01 0.986 1.54 1.49 2.08 2.11 3.59 3.99 4.78 6.71-0.162 3.73-1.96 4.97-4.61 7.52-0.713 0.697-0.713 0.697-1.44 1.41-1.53 1.49-3.07 2.95-4.62 4.41-2.01 1.93-4 3.87-6 5.8-0.949 0.915-1.9 1.83-2.88 2.77-3.06 3.04-5.79 6.24-8.56 9.55-1.26 1.16-2.54 2.3-3.88 3.38-2.98 2.53-5.57 5.17-8.12 8.12-3.12 3.61-6.42 6.68-10.1 9.75-2.64 2.38-4.85 5.05-7.13 7.76-2.5 2.75-5.3 5.04-8.2 7.34-1.91 1.95-2.29 2.94-2.6 5.64 0.879 2.2 0.879 2.2 2.35 4.38 0.519 0.833 1.04 1.67 1.57 2.52 0.561 0.878 1.12 1.76 1.7 2.66 1.12 1.82 2.24 3.64 3.36 5.47 0.532 0.869 1.06 1.74 1.61 2.63 13.7 22.7 14 50.6 13.4 76.3-7.72 0.985-15.4 1.35-23.2 1.62-1.23 0.0516-2.45 0.103-3.71 0.156-17.7 0.635-17.7 0.635-25.1-0.781-2.16-3.24-2.26-4.2-2.31-7.95-0.0227-0.986-0.0454-1.97-0.0688-2.99-0.0198-1.05-0.0396-2.11-0.0601-3.19-0.619-18.9-2.52-36.6-16.3-50.9-13.3-11.8-27.5-14.1-44.6-14.1-1.18-0.0122-2.36-0.0245-3.58-0.0371-6.63-0.0111-12.7 0.371-19 2.22-0.968 0.272-1.94 0.544-2.93 0.824-14 4.82-23.4 13.8-30.4 26.6-0.334 0.596-0.668 1.19-1.01 1.81-5.47 10.5-5.16 22.5-5.72 34-0.103 2.08-0.217 4.16-0.333 6.24-0.0606 1.23-0.121 2.46-0.184 3.73-0.125 0.924-0.25 1.85-0.379 2.8-2.44 1.22-4 1.12-6.73 1.11-0.981-7.55e-5 -1.96-1.51e-4 -2.97-2.29e-4 -1.06-0.00516-2.12-0.0103-3.22-0.0156-1.63-0.00212-1.63-0.00212-3.29-0.00429-3.47-0.00561-6.95-0.0182-10.4-0.0309-2.35-0.00501-4.7-0.00958-7.05-0.0137-5.77-0.011-11.5-0.0278-17.3-0.0488v-2h-2c-0.611-32.9 2.29-62.3 22.6-89.4 1.7-3.15 1.37-4.18 0.371-7.55-5.33-8.16-13.9-15-20.8-21.9-1.34-1.33-2.67-2.67-4.01-4-3.49-3.49-6.99-6.97-10.5-10.5-3.57-3.56-7.15-7.13-10.7-10.7-6.99-6.98-14-14-21-20.9 1.44-4.08 2.91-5.95 6.36-8.62 1.77-1.49 3.17-3.09 4.64-4.88 2.73-3.3 5.67-5.81 9-8.5 1.69-1.64 3.35-3.31 5-5 1.35-1.38 2.71-2.75 4.06-4.12 0.651-0.663 1.3-1.33 1.97-2.01 1.89-1.8 3.85-3.35 5.96-4.87z" fill="#9333ea"/>
<path transform="translate(912,504)" d="m0 0c0.99 0.66 1.98 1.32 3 2 2.64-0.0963 2.64-0.0963 5.62-0.562 8.43-0.839 16.2 0.822 24.4 2.56-0.495-1.49-0.495-1.49-1-3 9.24-0.209 17.9-0.15 27 2 0.495 2.48 0.495 2.48 1 5 0.99-0.33 1.98-0.66 3-1 4.09 0.371 7.46 0.874 11 3-0.99 0.33-1.98 0.66-3 1 0.554 0.266 1.11 0.531 1.68 0.805 1.09 0.53 1.09 0.53 2.2 1.07 1.08 0.522 1.08 0.522 2.18 1.05 1.95 1.07 1.95 1.07 3.95 3.07 2.43 0.462 2.43 0.462 5.12 0.625 1.37 0.112 1.37 0.112 2.76 0.227 0.699 0.049 1.4 0.098 2.12 0.148 0.33 1.32 0.66 2.64 1 4 2.64 0.33 5.28 0.66 8 1 0.0825 0.619 0.165 1.24 0.25 1.88 0.563 2.31 0.563 2.31 2.81 3.38 0.639 0.247 1.28 0.495 1.94 0.75v2c0.835 0.155 0.835 0.155 1.69 0.312 2.81 0.835 4.92 2.01 7.31 3.69 0.33 0.99 0.66 1.98 1 3l2 1c0.619 1.11 0.619 1.11 1.25 2.25 1.59 2.49 2.67 3.62 4.94 5.38 1.39 1.18 1.39 1.18 2.81 2.38v3c1.32 0.33 2.64 0.66 4 1v2h2c1.62 1.25 1.62 1.25 3 3v4h2c0.33 1.65 0.66 3.3 1 5h2c0.33 0.99 0.66 1.98 1 3 0.99 0.33 1.98 0.66 3 1 1.19 2.56 1.19 2.56 2 5h3c2.03 4.33 2.52 8.29 3 13 0.99-0.33 1.98-0.66 3-1v3l2 1c0.309 0.825 0.619 1.65 0.938 2.5 0.351 0.825 0.701 1.65 1.06 2.5 0.99 0.33 1.98 0.66 3 1-0.66 0.66-1.32 1.32-2 2 1.65 0.66 3.3 1.32 5 2 0.33 2.31 0.66 4.62 1 7 0.99 0.33 1.98 0.66 3 1 3.67 19 4.56 37.5 4.41 56.7-0.0255 3.83-0.0274 7.65-0.0321 11.5-0.0123 7.2-0.0449 14.4-0.0854 21.6-0.0452 8.22-0.0668 16.4-0.0868 24.6-0.0415 16.9-0.112 33.7-0.201 50.6-12.9 0.0233-25.9 0.041-38.8 0.0518-6 0.0052-12 0.0122-18 0.0236-5.8 0.0109-11.6 0.0169-17.4 0.0194-2.2 0.00184-4.41 0.00542-6.61 0.0109-11.4 0.0271-22.8-0.00876-34.2-1.11v-2c-1.32-0.66-2.64-1.32-4-2h2c0.33-1.32 0.66-2.64 1-4 3.07-0.911 5.8-1.09 9-1v2c5.37-0.499 10.7-1.02 16-2v-2c-2.97-0.33-5.94-0.66-9-1v-2h9v-2c-4.62-0.33-9.24-0.66-14-1v-6h-3c0.33-1.32 0.66-2.64 1-4 3.75-1.2 7.33-1.1 11.2-1.06 1.89 0.0135 1.89 0.0135 3.83 0.0273 0.964 0.0116 1.93 0.0232 2.92 0.0352v-5c0.33 0.66 0.66 1.32 1 2h2c-0.66-1.98-1.32-3.96-2-6 2.97 0.99 2.97 0.99 6 2v-4c1.98-0.33 3.96-0.66 6-1 0.33-0.99 0.66-1.98 1-3h3v-2c1.65-0.33 3.3-0.66 5-1h-5c3.75-2 3.75-2 6-2 0.33-0.66 0.66-1.32 1-2 0.639-0.0825 1.28-0.165 1.94-0.25 0.681-0.247 1.36-0.495 2.06-0.75 1.41-2.89 1.41-2.89 2-6-0.33-0.66-0.66-1.32-1-2h4c0.33-1.32 0.66-2.64 1-4l2 1c0.186-1.28 0.371-2.56 0.562-3.88 0.104-0.719 0.209-1.44 0.316-2.18 0.29-2.03 0.29-2.03-0.879-3.95-0.0446-1.52-0.039-3.04 0-4.56 0.0379-1.48 0.0463-2.96 0-4.44-0.33-0.33-0.66-0.66-1-1 1.38-17.4 1.38-17.4 4-20-0.0388-2.7-0.147-5.37-0.312-8.06-0.0354-0.739-0.0709-1.48-0.107-2.24-0.301-5.13-1.26-9.73-2.58-14.7-0.125-3-0.125-3 0-5h-2c0.206 0.743 0.412 1.48 0.625 2.25 0.419 3.07-0.00551 4.18-1.62 6.75-0.805-5.15-1.27-10.2-1.56-15.4-0.0432-0.732-0.0864-1.46-0.131-2.22-0.105-1.78-0.206-3.56-0.307-5.35 0.33 0.66 0.66 1.32 1 2 0.33-0.66 0.66-1.32 1-2h3v-2c-0.99 0.33-1.98 0.66-3 1 0.0412-0.743 0.0825-1.49 0.125-2.25 0.0703-2.68 0.0703-2.68-1.06-4.56-1.11-2.28-1.32-3.87-1.56-6.38-0.165-1.26-0.33-2.52-0.5-3.81l-2-1c0.0412-0.701 0.0825-1.4 0.125-2.12-0.237-5.45-2.06-9.81-5.94-13.7-6.5-6.5-11.4-12.8-12.2-22.2-0.99 0.495-0.99 0.495-2 1-0.433-0.639-0.866-1.28-1.31-1.94-1.6-2.33-1.6-2.33-4.69-3.06v-3c-0.99-0.33-1.98-0.66-3-1v-2c-0.99-0.33-1.98-0.66-3-1-0.66-0.99-1.32-1.98-2-3-2.05-1.19-2.05-1.19-4-2v-4c-0.944 0.0522-0.944 0.0522-1.91 0.105-7.06 0.223-13-0.297-18.4-5.23-0.557-0.619-1.11-1.24-1.69-1.88-1.49-0.495-1.49-0.495-3-1v-3c-1.07-0.103-2.14-0.206-3.25-0.312-3.76-0.689-4.89-1.4-7.75-3.69-2.65-0.714-2.65-0.714-5-1v-3h-11v1h-19v2c-1.99 0.381-3.99 0.713-6 1-0.33-0.33-0.66-0.66-1-1-1.56-0.0167-3.13 0.0369-4.69 0.121-0.944 0.0483-1.89 0.0967-2.86 0.146-0.993 0.0561-1.99 0.112-3.01 0.17-0.997 0.0522-1.99 0.104-3.02 0.158-2.47 0.13-4.94 0.265-7.42 0.404 0.33-1.32 0.66-2.64 1-4h-7v-2c1.32 0.33 2.64 0.66 4 1v-2c-0.784-0.309-1.57-0.619-2.38-0.938-2.62-1.06-2.62-1.06-4.62-2.06v-2h-2v2c-0.66-0.33-1.32-0.66-2-1v-3h-8v-3c-0.66-0.33-1.32-0.66-2-1 7.75-0.125 7.75-0.125 10 1v-2h-8v-3h-6v-2c-4.98-0.894-9.97-1.47-15-2v-3c1.21 0.0309 1.21 0.0309 2.44 0.0625 2.5 0.234 2.5 0.234 3.56-1.06 2.67-0.141 5.32-0.0425 8 0 0.33-0.66 0.66-1.32 1-2 1.11 0.0206 2.23 0.0412 3.38 0.0625 3.46 0.201 3.46 0.201 5.62-1.06 1.71 0.087 3.42 0.241 5.12 0.438 0.91 0.102 1.82 0.204 2.76 0.309 0.699 0.0838 1.4 0.168 2.12 0.254v-2c7.46-0.126 7.46-0.126 10.7 0.625 2.37 0.605 2.37 0.605 4.57-0.668 4.25-1.48 7.72-0.159 12 0.828 2.77 0.526 2.77 0.526 4.61-1.23 0.561-0.772 0.561-0.772 1.13-1.56z" fill="#9333ea"/>
<path transform="translate(391,1053)" d="m0 0c6.99 5.86 13.5 12.2 20 18.6 1.36 1.34 2.73 2.67 4.1 3.99 1.99 1.92 3.96 3.87 5.93 5.82 0.618 0.59 1.24 1.18 1.87 1.79 4.13 4.15 4.13 4.15 4.14 7.58-1.41 3.15-3.38 5.26-5.76 7.76-0.861 0.918-1.72 1.84-2.61 2.78-2.52 2.6-5.07 5.16-7.64 7.72-0.886 0.897-1.77 1.79-2.68 2.72-4.61 4.66-9.22 9.15-14.3 13.3-1.17 1.15-2.33 2.31-3.49 3.47-1.73 1.75-3.47 3.48-5.21 5.21-3.79 3.77-7.57 7.54-11.4 11.3-1.63 1.62-3.26 3.25-4.89 4.87-2.36 2.35-4.73 4.71-7.09 7.07-0.724 0.719-1.45 1.44-2.19 2.18-8.77 8.12-8.77 8.12-11.9 19.1-0.0147 1.28-0.0147 1.28-0.0297 2.59-0.00576 0.934-0.0115 1.87-0.0174 2.83-0.0099 0.986-0.0198 1.97-0.03 2.99-0.0316 3.26-0.0564 6.53-0.0811 9.79-0.0206 2.26-0.0416 4.52-0.063 6.78-0.0552 5.95-0.105 11.9-0.153 17.9-0.0502 6.07-0.106 12.1-0.161 18.2-0.108 11.9-0.209 23.8-0.307 35.8-7.39 0.0253-14.8 0.0428-22.2 0.0549-2.52 0.00504-5.03 0.0119-7.55 0.0205-3.61 0.0121-7.21 0.0178-10.8 0.0222-1.7 0.00774-1.7 0.00774-3.43 0.0156-1.04 7.55e-5 -2.08 1.51e-4 -3.15 2.29e-4 -1.38 0.00333-1.38 0.00333-2.79 0.00673-2.09-0.12-2.09-0.12-3.09-1.12-0.123-1.33-0.178-2.67-0.205-4.01-0.0199-0.867-0.0398-1.73-0.0604-2.63-0.0167-0.963-0.0335-1.93-0.0507-2.92-0.021-1.02-0.042-2.03-0.0637-3.08-0.0676-3.41-0.126-6.83-0.182-10.2-0.0198-1.17-0.0397-2.34-0.0602-3.55-0.14-8.47-0.253-16.9-0.352-25.4-0.0258-2.2-0.0526-4.4-0.0793-6.61-0.109-9.15-0.186-18.3-0.232-27.4-0.0155-2.98-0.0404-5.96-0.0731-8.95-0.0382-3.54-0.0565-7.09-0.0599-10.6-0.00656-1.93-0.0328-3.86-0.0597-5.79 0.0194-7.87 0.737-13.6 6.22-19.7l1.69-1.27c0.605-0.478 1.21-0.956 1.83-1.45 0.571-0.45 1.14-0.9 1.73-1.36 2.67-2.54 5.06-5.07 7.38-7.94 2.33-2.85 4.93-5.15 7.78-7.47 2.41-2.08 4.6-4.33 6.84-6.59 0.993-0.996 1.99-1.99 2.98-2.99 1.11-1.12 2.23-2.23 3.34-3.35 6.21-6.22 12.4-12.4 18.6-18.7 3.75-3.76 7.51-7.52 11.3-11.3 3.63-3.65 7.27-7.29 10.9-10.9 1.39-1.39 2.77-2.78 4.16-4.17 1.93-1.94 3.86-3.87 5.8-5.8 0.861-0.866 0.861-0.866 1.74-1.75 3.96-3.95 3.96-3.95 6.19-5.07z" fill="#9333ea"/>
<path transform="translate(1122,1054)" d="m0 0c5.7 0.185 8.61 4.09 12.3 7.94 0.645 0.646 1.29 1.29 1.96 1.96 4.73 4.82 4.73 4.82 4.73 7.1 0.87 0.383 0.87 0.383 1.76 0.773 2.47 1.35 4.14 2.86 6.13 4.85 1.06 1.06 1.06 1.06 2.15 2.14 0.73 0.737 1.46 1.47 2.21 2.23 0.745 0.737 1.49 1.47 2.26 2.23 0.704 0.706 1.41 1.41 2.13 2.14 0.645 0.647 1.29 1.29 1.95 1.96 1.41 1.66 1.41 1.66 1.41 3.66 0.553 0.228 1.11 0.456 1.68 0.691 3 1.69 5.07 3.81 7.5 6.25 0.503 0.501 1.01 1 1.52 1.52 1.66 1.65 3.31 3.31 4.96 4.97 1.15 1.15 2.31 2.31 3.46 3.46 2.41 2.42 4.83 4.84 7.23 7.26 3.08 3.1 6.17 6.2 9.27 9.29 2.38 2.38 4.76 4.76 7.14 7.15 1.14 1.14 2.28 2.28 3.42 3.42 1.59 1.6 3.18 3.2 4.77 4.8 0.905 0.909 1.81 1.82 2.74 2.75 3.75 3.97 5.69 6.1 5.67 11.7 0.00619 1.6 0.00619 1.6 0.0125 3.23-0.0108 1.16-0.0216 2.33-0.0327 3.53 4.38e-4 1.23 8.76e-4 2.46 0.00133 3.73-0.00173 3.37-0.0168 6.73-0.0377 10.1-0.0188 3.52-0.0205 7.04-0.0241 10.6-0.00932 6.67-0.0339 13.3-0.064 20-0.0335 7.59-0.05 15.2-0.0651 22.8-0.0314 15.6-0.0841 31.2-0.151 46.8-7.39 0.0253-14.8 0.0428-22.2 0.0549-2.52 0.00504-5.03 0.0119-7.55 0.0205-3.61 0.0121-7.21 0.0178-10.8 0.0222-1.7 0.00774-1.7 0.00774-3.43 0.0156-1.56 1.13e-4 -1.56 1.13e-4 -3.15 2.29e-4 -0.922 0.00222-1.84 0.00444-2.79 0.00673-2.09-0.12-2.09-0.12-3.09-1.12-0.163-2.32-0.261-4.62-0.316-6.95-0.0208-0.74-0.0416-1.48-0.063-2.24-0.0672-2.5-0.126-5-0.183-7.5-0.0323-1.29-0.0323-1.29-0.0652-2.61-0.465-18.9-0.437-37.8-0.335-56.7 0.00426-1.13 0.00853-2.25 0.0129-3.41 0.0082-2.11 0.0205-4.22 0.038-6.32 0.34-12.5 0.34-12.5-5.09-23.2-1.22-1.1-2.46-2.19-3.72-3.26-3.9-3.38-7.61-6.9-11.3-10.5-0.647-0.638-1.29-1.28-1.96-1.93-2.11-2.08-4.21-4.17-6.31-6.26-0.722-0.717-1.44-1.43-2.19-2.17-3.81-3.78-7.61-7.57-11.4-11.4-3.15-3.13-6.3-6.26-9.46-9.38-3.83-3.78-7.64-7.57-11.4-11.4-1.45-1.44-2.91-2.88-4.36-4.32-2.03-2-4.04-4.01-6.05-6.03-0.608-0.592-1.22-1.18-1.84-1.79-1.64-1.67-1.64-1.67-3.98-4.61 0.476-4.18 2.8-6.3 5.62-9.31 0.478-0.511 0.956-1.02 1.45-1.55 4.18-4.43 8.45-8.76 12.7-13.1 0.621-0.626 1.24-1.25 1.88-1.9 10.2-10.2 10.2-10.2 13.3-10.2v-2z" fill="#9333ea"/>
<path transform="translate(1062,879)" d="m0 0c-0.33 0.99-0.66 1.98-1 3 2.69 0.077 5.04-0.00836 7.69-0.562 2.31-0.438 2.31-0.438 4.31 0.562 0.309 0.99 0.619 1.98 0.938 3 0.351 0.99 0.701 1.98 1.06 3 0.99 0.33 1.98 0.66 3 1v2c-1.98 0.33-3.96 0.66-6 1 0.33 1.98 0.66 3.96 1 6 0.66-1.32 1.32-2.64 2-4 0.25 6.62 0.25 6.62-2 10h2c1.12 3.75 1.12 3.75 0 6 0.06 1.63 0.149 3.25 0.25 4.88 0.0938 15.8-6.5 31.8-11.4 46.6-0.732 2.2-1.45 4.41-2.16 6.62-6.62 20.1-15.6 39.5-25.6 58.1-0.606 1.13-1.21 2.27-1.84 3.44-9.82 18-9.82 18-14.3 20.4-1.95 0.567-1.95 0.567-5.02 0.942-0.33 1.65-0.66 3.3-1 5h-3c-0.33 0.99-0.66 1.98-1 3-1.32-0.33-2.64-0.66-4-1 0.0825 0.887 0.165 1.77 0.25 2.69-0.307 4.06-1.31 5.54-4.25 8.31h-4c0.33 0.99 0.66 1.98 1 3-2.39 5.7-2.39 5.7-5 7-0.33-1.32-0.66-2.64-1-4-0.66 0.66-1.32 1.32-2 2h-3v3c-0.99 0.33-1.98 0.66-3 1v2c-4.38 3-4.38 3-7 3-2.02 2.91-3.35 5.52-4 9-1.98 0.33-3.96 0.66-6 1-0.33 0.99-0.66 1.98-1 3-1.08 0.0309-1.08 0.0309-2.19 0.0625-3.17 1.06-3.46 1.56-5.19 4.25-3.04 4.67-6.71 6.79-12.1 8.44-0.516 0.0825-1.03 0.165-1.56 0.25 0.33 0.99 0.66 1.98 1 3-0.5 3.06-0.5 3.06-2 6-3.12 1.25-3.12 1.25-7 2-5.48 1.01-5.48 1.01-10 4-1.15 0.103-2.31 0.206-3.5 0.312-5.43 0.519-9.8 3.08-14.5 5.69v2h-2v-2l-3 2c-3.19 0.125-3.19 0.125-6 0 0.33-0.99 0.66-1.98 1-3-0.66-0.66-1.32-1.32-2-2-0.125-3.62-0.125-3.62 0-7h2v-2h3v-5c0.897-0.217 0.897-0.217 1.81-0.438 1.75-0.45 3.47-0.991 5.19-1.56l1-2c3-2 3-2 6-2v-2c0.66-0.33 1.32-0.66 2-1v-2h3v-2c1.67-1.67 3.33-3.33 5-5v-2c0.99-0.33 1.98-0.66 3-1 1.67-1.5 1.67-1.5 3-3l-1-2c2-3 2-3 4.12-3.69 0.619-0.103 1.24-0.206 1.88-0.312v-4c1.98-0.33 3.96-0.66 6-1 0.186-0.959 0.186-0.959 0.375-1.94 0.309-1.02 0.309-1.02 0.625-2.06 0.66-0.33 1.32-0.66 2-1 0.433-1.13 0.866-2.27 1.31-3.44 1.69-3.56 1.69-3.56 4.31-4.75 1.18-0.402 1.18-0.402 2.38-0.812 0.702-1.8 0.702-1.8 1-4 1.31-3.19 1.31-3.19 3-6 2.19-0.875 2.19-0.875 4-1 0.0825-0.928 0.165-1.86 0.25-2.81 0.88-3.74 1.76-4.06 4.75-6.19v-4h2v-2c0.99-0.66 1.98-1.32 3-2 1.63-2.8 3.05-5.67 4.5-8.57 1.5-2.43 1.5-2.43 4.5-3.43v-2h3v-3h-2c0.66-1.32 1.32-2.64 2-4h2v-8h-3c0.688-2.44 0.688-2.44 2-5 2.62-0.812 2.62-0.812 5-1v-2c1.65-0.33 3.3-0.66 5-1 0.169-1.6 0.335-3.21 0.5-4.81 0.0928-0.893 0.186-1.79 0.281-2.71 0.263-2.56 0.263-2.56 0.219-5.48 1.32-0.66 2.64-1.32 4-2h-3c-1.67-0.311-3.34-0.641-5-1 0.33-0.66 0.66-1.32 1-2 2.56-0.625 2.56-0.625 5-1-1.49-0.99-1.49-0.99-3-2 0.458-4.13 0.849-6.26 4-9v-2c6.62-0.125 6.62-0.125 10 1 0.182-1.45 0.182-1.45 0.367-2.92 0.168-1.26 0.335-2.53 0.508-3.83 0.162-1.25 0.325-2.51 0.492-3.8 0.539-2.94 1.11-4.92 2.63-7.45h-2c0.33-0.66 0.66-1.32 1-2l-1-1v-2h2v-8c-0.66-0.33-1.32-0.66-2-1 1.32-0.33 2.64-0.66 4-1 0.66-2.97 1.32-5.94 2-9h2v-5c0.99-0.33 1.98-0.66 3-1 0.33-2.97 0.66-5.94 1-9 1.48 0.495 1.48 0.495 3 1 0.389-1.62 0.761-3.25 1.12-4.88 0.209-0.905 0.418-1.81 0.633-2.74 0.0799-0.786 0.16-1.57 0.242-2.38l-2-2h3c0.0825-0.742 0.165-1.49 0.25-2.25 1.06-3.89 3.39-5.64 6.44-8.12 1.59-1.68 1.59-1.68 1.69-4.69 0.206-0.969 0.412-1.94 0.625-2.94 2.91-1.85 5.77-2.12 9.12-2.5 5.29-0.682 8.25-2.71 13.9-2.5z" fill="#9333ea"/>
<path transform="translate(322,287)" d="m0 0c2.13-0.381 2.13-0.381 4.79-0.388 1.49-0.0142 1.49-0.0142 3.01-0.0287 1.08 0.00607 2.15 0.0121 3.26 0.0184 1.1-0.00287 2.2-0.00574 3.34-0.0087 2.33-0.00204 4.67 0.00351 7 0.016 3.58 0.016 7.16 1.62e-4 10.7-0.019 2.26 0.00198 4.53 0.00583 6.79 0.0117 1.08-0.00607 2.15-0.0121 3.26-0.0184 0.994 0.00946 1.99 0.0189 3.01 0.0287 0.878 0.00239 1.76 0.00477 2.66 0.00723 0.701 0.126 1.4 0.251 2.13 0.381 2.6 3.9 2.26 7.13 2.21 11.6-0.00131 0.883-0.00263 1.77-0.00398 2.68-0.0065 2.93-0.027 5.85-0.047 8.78-0.00627 2.04-0.0115 4.07-0.0158 6.11-0.0133 5.37-0.0378 10.7-0.0654 16.1-0.043 8.58-0.0729 17.2-0.096 25.7-0.0102 2.99-0.0272 5.98-0.045 8.97-0.00683 1.85-0.0134 3.7-0.0198 5.55-0.0101 1.23-0.0101 1.23-0.0204 2.49-0.424 11-0.424 11 4.35 20.2 0.634 0.656 1.27 1.31 1.92 1.99 1.39 1.29 2.85 2.51 4.33 3.7 3 2.4 5.32 5.14 7.82 8.05 3.25 3.75 6.79 7.05 10.6 10.3 3.42 2.96 6.35 6.13 9.27 9.57 3.42 3.9 7.16 7.48 10.9 11.1 1.67 1.67 3.33 3.33 5 5 0.866 0.846 1.73 1.69 2.62 2.56 4.05 4.16 4.05 4.16 5.38 6.44-0.263 4.31-3.14 6.41-6.12 9.25-1.01 0.975-2.01 1.95-3.02 2.93-0.49 0.478-0.981 0.956-1.49 1.45-2.44 2.43-4.65 5.05-6.89 7.67-2.05 2.36-4.25 4.53-6.48 6.71-0.825 0.846-1.65 1.69-2.5 2.56-6.51 6.35-6.51 6.35-10.3 6.69-4.77-1.87-8-5.29-11.2-9.25v-2h-2v-2c-0.835-0.34-0.835-0.34-1.69-0.688-2.96-1.68-4.97-3.85-7.31-6.31-0.598-0.557-1.2-1.11-1.81-1.69-1.19-1.31-1.19-1.31-1.19-3.31-0.536-0.206-1.07-0.413-1.62-0.625-3.29-1.91-5.97-4.42-8.38-7.38v-2h-2c-1.23-1.29-1.23-1.29-2.75-3.19-3.47-4.11-7.28-7.7-11.2-11.3-4.56-4.15-8.86-8.32-12.8-13.1-1.2-1.53-1.2-1.53-3.23-2.39v-2c-0.584-0.237-1.17-0.474-1.77-0.719-2.7-1.55-4.05-3.29-5.92-5.78-0.602-0.794-1.2-1.59-1.82-2.41-2.29-3.22-2.61-4.99-2.62-8.91-0.00426-1.02-0.00853-2.03-0.0129-3.08 4.53e-4 -1.12 9.06e-4 -2.24 0.00137-3.39-0.00336-1.18-0.00672-2.35-0.0102-3.56-0.00789-3.23-0.0112-6.46-0.0118-9.69-9.49e-4 -2.69-0.00463-5.39-0.00817-8.08-0.00815-6.35-0.0106-12.7-0.00987-19.1 6.01e-4 -6.56-0.00995-13.1-0.0257-19.7-0.0131-5.63-0.0184-11.3-0.0178-16.9 2.55e-4 -3.36-0.00261-6.73-0.0132-10.1-0.00975-3.75-0.00694-7.5-8.95e-4 -11.2-0.00562-1.12-0.0112-2.24-0.017-3.39 0.00419-1.02 0.00839-2.04 0.0127-3.09-5.45e-4 -0.887-0.00109-1.77-0.00165-2.69 0.249-2.25 0.249-2.25 2.25-5.25z" fill="#9333ea"/>
<path transform="translate(1144 287)" d="m0 0c0.881 0.00143 1.76 0.00285 2.67 0.00432 1.5-0.00461 1.5-0.00461 3.02-0.00932 1.08 0.00719 2.16 0.0144 3.27 0.0218 1.66 6.87e-4 1.66 6.87e-4 3.35 0.00139 2.34 0.00302 4.68 0.0109 7.01 0.0233 3.59 0.0183 7.19 0.0205 10.8 0.0203 2.27 0.00492 4.53 0.0107 6.8 0.0176 1.08 0.00111 2.16 0.00223 3.28 0.00337 0.995 0.00638 1.99 0.0128 3.01 0.0193 0.88 0.00381 1.76 0.00762 2.67 0.0116 2 0.134 2 0.134 3 1.13 0.112 1.57 0.156 3.14 0.172 4.71 0.0127 1.02 0.0254 2.04 0.0384 3.09 0.0089 1.13 0.0178 2.26 0.027 3.42 0.0131 1.18 0.0262 2.36 0.0397 3.58 0.0347 3.25 0.0649 6.5 0.0924 9.74 0.0175 2.03 0.0364 4.06 0.0558 6.09 0.0676 7.08 0.13 14.2 0.188 21.2 0.0538 6.6 0.119 13.2 0.189 19.8 0.06 5.66 0.112 11.3 0.158 17 0.0276 3.38 0.0583 6.77 0.097 10.1 0.0412 3.78 0.0693 7.56 0.0943 11.3 0.0225 1.68 0.0225 1.68 0.0454 3.39 0.029 7.1-0.288 12.8-5.2 18.4l-1.56 1.8c-1.44 1.32-1.44 1.32-3.44 1.32-0.262 0.599-0.523 1.2-0.793 1.82-1.28 2.31-2.47 3.48-4.52 5.12-3.08 2.54-5.9 5.2-8.69 8.06-0.763 0.742-1.53 1.48-2.31 2.25-2.28 2.34-4.42 4.72-6.56 7.19-2.99 3.4-6.08 6.35-9.59 9.21-2.14 1.88-3.77 4.13-5.54 6.35h-2c-0.258 0.597-0.516 1.19-0.781 1.81-1.32 2.37-2.61 3.58-4.72 5.25-2.44 1.95-3.72 3.27-5.5 5.94h-2c-0.33 0.99-0.66 1.98-1 3h-2c-0.251 0.584-0.503 1.17-0.762 1.77-1.39 2.51-2.9 4.02-5.05 5.92-1 0.903-1 0.903-2.02 1.82-2.54 1.75-4.07 2.45-7.17 2.49-2.28-1.7-2.28-1.7-4.5-4.12-0.732-0.786-1.46-1.57-2.22-2.38-1.13-1.23-1.13-1.23-2.28-2.49-1.66-1.67-3.33-3.34-5-5l-21-21c5.34-11.2 17.1-20.8 26.5-28.7 3.1-2.64 5.87-5.44 8.34-8.67 2.47-2.96 5.19-5.31 8.11-7.81 5.31-4.64 10-9.78 14.6-15.1 1.11-1.28 2.28-2.5 3.48-3.7 0.307-1.92 0.307-1.92 0.265-4.14 0.00827-0.867 0.0165-1.73 0.0251-2.63-9.82e-4 -0.953-0.00196-1.91-0.00298-2.89 0.0102-1.5 0.0102-1.5 0.0207-3.04 0.0136-2.18 0.0227-4.36 0.0277-6.54 0.00826-3.45 0.0287-6.89 0.0525-10.3 0.0483-7.31 0.0812-14.6 0.112-21.9 0.0356-8.47 0.0774-16.9 0.136-25.4 0.0201-3.4 0.0284-6.8 0.0363-10.2 0.013-2.08 0.0265-4.15 0.0406-6.23-9.82e-4 -0.953-0.00196-1.91-0.00298-2.89 0.00827-0.867 0.0165-1.73 0.0251-2.63 0.0044-1.13 0.0044-1.13 0.00889-2.29 0.4-2.89 1.56-3.77 4.39-4.1z" fill="#9333ea"/>
<path transform="translate(1168,714)" d="m0 0c12.8-0.325 25.6-0.574 38.4-0.725 5.95-0.0728 11.9-0.171 17.9-0.331 5.75-0.153 11.5-0.236 17.3-0.272 2.19-0.0257 4.37-0.076 6.56-0.152 18-0.6 18-0.6 24.1 4.49 2.87 2.85 5.32 5.92 7.62 9.24 1.8 2.58 3.83 4.96 5.84 7.37 0.701 0.875 1.4 1.75 2.12 2.65 3.41 4.13 7.05 8.02 10.7 11.9 2.64 2.86 5.2 5.77 7.75 8.71 2.26 2.57 4.57 5.1 6.88 7.62 10.9 12 10.9 12 10.9 14.4 0.99 0.33 1.98 0.66 3 1 2.55 2.47 4.72 5.29 7 8 0.873 0.986 1.75 1.97 2.64 2.99 0.911 1.05 1.82 2.09 2.73 3.14 1.28 1.46 1.28 1.46 2.59 2.95 2.21 3.17 3.02 5.08 3.04 8.93-1.26 1.72-1.26 1.72-3.12 3.06-3.26 2.41-6.02 5.05-8.88 7.94-1.88 1.78-3.78 3.56-5.69 5.31-0.953 0.883-1.91 1.77-2.89 2.68-2.43 2.01-2.43 2.01-4.43 2.01-0.33 0.99-0.66 1.98-1 3-3.51 3.52-7.06 6.72-12.1 7.44-7.58-3.71-12.6-11.4-17.8-17.8-2.48-2.98-5.13-5.65-7.97-8.29-1.21-1.34-1.21-1.34-1.21-3.34h-2c-1.33-1.57-1.33-1.57-2.81-3.69-2.44-3.47-5.16-6.34-8.19-9.31-1.8-1.93-3.6-3.86-5.38-5.81-0.478-0.523-0.956-1.05-1.45-1.58-3.3-3.62-6.55-7.27-9.74-11-1.43-1.66-1.43-1.66-3.12-3.21-1.31-1.41-1.31-1.41-1.31-3.41-3.56-1.19-6.34-1.1-10.1-1.07-0.719 0.00467-1.44 0.00935-2.18 0.0142-1.56 0.0105-3.12 0.0232-4.68 0.0377-2.47 0.022-4.93 0.0361-7.4 0.0477-7.01 0.0336-14 0.0754-21 0.138-4.29 0.0376-8.58 0.0606-12.9 0.0743-1.64 0.00807-3.27 0.0217-4.91 0.0409-2.28 0.0264-4.57 0.0344-6.85 0.0381-1.3 0.00968-2.6 0.0194-3.94 0.0293-1-0.117-2-0.234-3.03-0.354-2.08-3.11-2.26-3.91-2.35-7.47-0.0263-0.901-0.0527-1.8-0.0798-2.73-0.0178-0.972-0.0357-1.94-0.054-2.95-0.0241-1-0.0482-2.01-0.0731-3.04-0.0483-2.12-0.0917-4.24-0.131-6.37-0.0616-3.24-0.145-6.48-0.23-9.72-0.0443-2.06-0.0873-4.13-0.129-6.19-0.0259-0.966-0.0518-1.93-0.0786-2.93-0.0137-0.911-0.0274-1.82-0.0416-2.76-0.0243-1.19-0.0243-1.19-0.049-2.41 0.267-3.02 1.17-5.61 2.22-8.45z" fill="#9333ea"/>
<path transform="translate(267 714)" d="m0 0c0.857-0.0019 1.71-0.0038 2.6-0.00575 2.83-0.0037 5.66 0.00699 8.49 0.0182 1.96 0.00119 3.93 0.00164 5.89 0.00139 4.11 0.00156 8.23 0.00985 12.3 0.0233 5.29 0.017 10.6 0.0208 15.9 0.0201 4.06 2.71e-4 8.11 0.00574 12.2 0.013 1.95 0.00319 3.9 0.00516 5.85 0.00589 2.72 0.00216 5.44 0.0109 8.15 0.0216 0.813-4.53e-4 1.63-9.06e-4 2.46-0.00137 5.55 0.0322 5.55 0.0322 6.66 1.15 0.0987 1.65 0.128 3.31 0.129 4.96 0.00315 1.06 0.0063 2.12 0.00955 3.21-0.00304 1.73-0.00304 1.73-0.00613 3.49 9.57e-4 1.17 0.00191 2.35 0.0029 3.55 6.82e-4 2.48-0.00117 4.97-0.00534 7.45-0.00535 3.82-5.57e-5 7.64 0.00635 11.5-6.61e-4 2.41-0.00194 4.82-0.00391 7.22 0.00202 1.15 0.00405 2.3 0.00613 3.49-0.00473 1.59-0.00473 1.59-0.00955 3.21-7.96e-4 0.936-0.00159 1.87-0.00241 2.84-0.127 2.13-0.127 2.13-1.13 3.13-2.02 0.0678-4.04 0.0646-6.06 0.0342-1.3-0.0162-2.6-0.0324-3.94-0.0491-1.05-0.0159-1.05-0.0159-2.12-0.0321-2.94-0.0419-5.87-0.0655-8.81-0.09-5.47-0.0458-10.9-0.0984-16.4-0.185-3.8-0.0596-7.6-0.0944-11.4-0.113-1.45-0.0117-2.89-0.0325-4.34-0.0626-9.07-0.439-9.07-0.439-17.2 2.89-0.893 0.861-1.79 1.72-2.71 2.61-0.784 0.722-1.57 1.44-2.38 2.19-3.18 3.41-6.27 6.9-9.34 10.4-2.28 2.4-4.69 4.35-7.28 6.4-0.994 1.09-1.96 2.22-2.88 3.38-2.04 2.45-4.1 4.54-6.56 6.56-2.61 2.16-4.81 4.41-7 7-2.36 2.78-4.78 5.21-7.56 7.56-3.44 2.91-6.29 6.07-9.2 9.51-2.52 2.78-5.32 5.15-8.2 7.55-1.72 1.37-1.72 1.37-2.6 3.45-2.5 0.5-2.5 0.5-6 0-2.19-1.77-4.02-3.72-5.93-5.79-1.93-2.06-3.91-3.84-6.07-5.65-3.69-3.17-6.8-6.67-9.98-10.4-2.59-2.83-5.41-5.27-8.36-7.7-1.66-1.51-1.66-1.51-3.66-4.51 0.0414-3.23 1.28-4.31 3.48-6.73 1.04-1.01 2.09-2.02 3.15-3.02 1.1-1.07 2.21-2.14 3.3-3.21l1.61-1.57c1.84-1.84 3.53-3.78 5.21-5.77 2.88-3.4 6.08-6.22 9.47-9.1 2.22-1.99 3.94-4.26 5.78-6.59 1.98-1.69 3.98-3.35 6-5 3.37-3.2 6.41-6.58 9.38-10.2 3.71-4.21 7.81-7.94 12-11.7 4.01-3.62 7.67-7.33 11.1-11.5 2.03-2.38 4.24-4.55 6.48-6.73 0.568-0.59 1.14-1.18 1.72-1.79 0.911-0.94 0.911-0.94 1.84-1.9 0.837-0.872 0.837-0.872 1.69-1.76 4.39-3.9 8.59-3.83 14.3-3.79z" fill="#9333ea"/>
<path transform="translate(1122,1054)" d="m0 0c5.7 0.185 8.61 4.09 12.3 7.94 0.645 0.646 1.29 1.29 1.96 1.96 4.73 4.82 4.73 4.82 4.73 7.1h2c-0.33 1.98-0.66 3.96-1 6-0.743-0.186-1.48-0.371-2.25-0.562-6.19-0.722-12.8-0.417-18.8 1.56 0.495 1.48 0.495 1.48 1 3-1.32 0.33-2.64 0.66-4 1-0.934 4.53-0.934 4.53 0 9v3h3c0.495 4.45 0.495 4.45 1 9 1.81-1.81 1.64-4.55 2-7 3.87 3.87 4.36 6.65 4.73 11.9 0.555 4.43 3.16 7.18 6.27 10.1 0.33 0.66 0.66 1.32 1 2h3c0.33 1.32 0.66 2.64 1 4h3v2c0.639 0.227 1.28 0.454 1.94 0.688 2.06 1.31 2.06 1.31 2.75 3.88 0.155 1.21 0.155 1.21 0.312 2.44 0.33 0.33 0.66 0.66 1 1 0.99-0.33 1.98-0.66 3-1 0.309 0.784 0.619 1.57 0.938 2.38 0.991 2.55 0.991 2.55 2.06 4.62-0.33 0.66-0.66 1.32-1 2 1.98 0.33 3.96 0.66 6 1 0.33 0.99 0.66 1.98 1 3 1.98 1.03 3.98 2.03 6 3 0.33 0.66 0.66 1.32 1 2 1.33 0.343 2.66 0.676 4 1 3.91 3.91 4.12 10.2 4.12 15.6-0.0412 1.13-0.0825 2.27-0.125 3.44 0.66 0.33 1.32 0.66 2 1 2.32 3.49 2.43 5.89 3 10 0.557 1.3 0.557 1.3 1.12 2.62 1.06 2.86 0.701 4.48-0.125 7.38-1.32-0.99-2.64-1.98-4-3 0.133 0.574 0.266 1.15 0.402 1.74 1.63 7.86 2.03 15.6 2.38 23.6 0.246 5.56 0.699 11.1 1.22 16.6h1v-2h2v4h2c0.0374 0.759 0.0748 1.52 0.113 2.3 0.0657 0.994 0.131 1.99 0.199 3.01 0.058 0.986 0.116 1.97 0.176 2.99 0.558 2.94 1.2 3.88 3.51 5.7h-2l4 4 2-2c0.66 0.99 1.32 1.98 2 3h2c0.66-1.32 1.32-2.64 2-4 0.289 0.639 0.578 1.28 0.875 1.94 0.953 2.21 0.953 2.21 3.12 3.06 0.449 2.91 0.449 2.91 0.688 6.5 0.0864 1.19 0.173 2.37 0.262 3.59 0.0168 0.959 0.0335 1.92 0.0508 2.91-1 1-1 1-3.56 1.06-0.804-0.0206-1.61-0.0412-2.44-0.0625-0.33-0.66-0.66-1.32-1-2v4c0.99-0.33 1.98-0.66 3-1h3c0.33 0.66 0.66 1.32 1 2 2.02 0.652 2.02 0.652 4 1-2.67 0.891-5.24 1.48-8 2v2c-4.82 0.0247-9.65 0.0428-14.5 0.0549-1.64 0.00504-3.28 0.0119-4.93 0.0205-2.36 0.0121-4.71 0.0178-7.07 0.0222-0.739 0.00516-1.48 0.0103-2.24 0.0156-1.77 1.96e-4 -3.53-0.0513-5.3-0.113-1.9-1.9-1.25-5.36-1.32-7.95-0.0208-0.74-0.0416-1.48-0.063-2.24-0.0672-2.5-0.126-5-0.183-7.5-0.0323-1.29-0.0323-1.29-0.0652-2.61-0.465-18.9-0.437-37.8-0.335-56.7 0.00426-1.13 0.00853-2.25 0.0129-3.41 0.0082-2.11 0.0205-4.22 0.038-6.32 0.34-12.5 0.34-12.5-5.09-23.2-1.22-1.1-2.46-2.19-3.72-3.26-3.9-3.38-7.61-6.9-11.3-10.5-0.647-0.638-1.29-1.28-1.96-1.93-2.11-2.08-4.21-4.17-6.31-6.26-0.722-0.717-1.44-1.43-2.19-2.17-3.81-3.78-7.61-7.57-11.4-11.4-3.15-3.13-6.3-6.26-9.46-9.38-3.83-3.78-7.64-7.57-11.4-11.4-1.45-1.44-2.91-2.88-4.36-4.32-2.03-2-4.04-4.01-6.05-6.03-0.608-0.592-1.22-1.18-1.84-1.79-1.64-1.67-1.64-1.67-3.98-4.61 0.476-4.18 2.8-6.3 5.62-9.31 0.478-0.511 0.956-1.02 1.45-1.55 4.18-4.43 8.45-8.76 12.7-13.1 0.621-0.626 1.24-1.25 1.88-1.9 10.2-10.2 10.2-10.2 13.3-10.2v-2z" fill="#9333ea"/>
<path transform="translate(1222,732)" d="m0 0c0.66 1.32 1.32 2.64 2 4 6.93-0.99 6.93-0.99 14-2 0.495 0.99 0.495 0.99 1 2h3c-0.66-0.66-1.32-1.32-2-2 7.74-2.13 15-2.2 23-2-0.959 0.464-0.959 0.464-1.94 0.938-2 0.897-2 0.897-3.06 2.06 0.592-0.0116 1.18-0.0232 1.79-0.0352 4.21-0.0481 8.1-0.0249 12.2 1.04 0.495 1.49 0.495 1.49 1 3 1.65 0.33 3.3 0.66 5 1v6h3c0.495 0.99 0.495 0.99 1 2 1.07 0.577 2.14 1.15 3.25 1.75 3.93 2.14 6.01 4.74 8.75 8.25 0.99 0.66 1.98 1.32 3 2v2c0.619 0.0825 1.24 0.165 1.88 0.25 2.12 0.75 2.12 0.75 3.31 2.62 0.647 1.69 1.24 3.41 1.81 5.12 1.33 1.5 1.33 1.5 3 3 1.33 1.33 2.67 2.67 4 4-0.495 0.99-0.495 0.99-1 2l4 1c0.33 1.32 0.66 2.64 1 4h3c1.12 3.75 1.12 3.75 0 6l2 1c-0.33 0.33-0.66 0.66-1 1h1v5c-2.47 0.99-2.47 0.99-5 2 0.99 0.33 1.98 0.66 3 1-2.97 0.495-2.97 0.495-6 1v-2c-3.17-0.897-6.22-1.25-9.5-1.5-6.86-0.528-6.86-0.528-9.5-1.5-0.66-0.99-1.32-1.98-2-3-1.48 0.495-1.48 0.495-3 1v-2h-3v5c-1.88-0.25-1.88-0.25-4-1-1.25-2.06-1.25-2.06-2-4h-2c0.66 0.33 1.32 0.66 2 1-0.495 1.98-0.495 1.98-1 4h-6v2h-2c-1.29-1.45-2.5-2.96-3.69-4.5-4.82-6.06-10.1-11.6-15.4-17.2-0.631-0.66-1.26-1.32-1.91-2-0.571-0.59-1.14-1.18-1.73-1.79-1.23-1.52-1.23-1.52-1.23-3.52-3.73-1.24-7.27-1.23-11.2-1.32-1.19-0.0312-1.19-0.0312-2.41-0.063-2.54-0.0653-5.07-0.124-7.61-0.183-1.72-0.0432-3.44-0.0868-5.16-0.131-4.22-0.107-8.43-0.208-12.7-0.307v-1h5v-4c0.66-0.66 1.32-1.32 2-2v-2c-0.928 0.0206-1.86 0.0412-2.81 0.0625-3.19-0.0625-3.19-0.0625-6.19-1.06-2.33-0.672-4.67-1.34-7-2v-2c-1.98-0.33-3.96-0.66-6-1v-2c-1.32-0.33-2.64-0.66-4-1v-2h-2c-0.176-4.48-0.221-8.03 2-12 0.99-0.33 1.98-0.66 3-1 1.3-1.15 1.3-1.15 2-4 7.67-3.14 21.4-2 29 1z" fill="#9333ea"/>
<path transform="translate(261,748)" d="m0 0h2c0.495 0.495 0.495 0.495 1 1 2.05-0.409 2.05-0.409 4-1v2h2v2c1.32 0.33 2.64 0.66 4 1-0.33 0.99-0.66 1.98-1 3 0.883 3.15 0.883 3.15 2 6-1.32 0.66-2.64 1.32-4 2 2.31 0.33 4.62 0.66 7 1-0.66 0.33-1.32 0.66-2 1 0.402 1.08 0.402 1.08 0.812 2.19 0.188 2.81 0.188 2.81-1.94 5.38-1.72 1.46-3.46 2.88-5.25 4.25-2.32 1.94-4.11 3.83-6.06 6.12-2.93 3.43-6.09 6.18-9.56 9.06-1 1.13-1.98 2.28-2.94 3.44-2.01 2.43-4.06 4.49-6.5 6.5-2.61 2.16-4.81 4.41-7 7-2.36 2.78-4.78 5.21-7.56 7.56-3.44 2.91-6.29 6.07-9.2 9.51-2.52 2.78-5.32 5.15-8.2 7.55-1.72 1.37-1.72 1.37-2.6 3.45-2.5 0.5-2.5 0.5-6 0-2.19-1.77-4.02-3.72-5.93-5.79-1.93-2.06-3.91-3.84-6.07-5.65-3.69-3.17-6.8-6.67-9.98-10.4-2.59-2.83-5.41-5.27-8.36-7.7-1.66-1.51-1.66-1.51-3.66-4.51 0.0414-3.23 1.28-4.31 3.48-6.73 1.04-1.01 2.09-2.02 3.15-3.02 1.1-1.07 2.21-2.14 3.3-3.21 0.798-0.779 0.798-0.779 1.61-1.57 1.84-1.84 3.53-3.78 5.21-5.77 2.88-3.39 6.06-6.22 9.46-9.08 1.99-1.7 1.99-1.7 4.04-4.48 1.9-2.31 2.83-2.81 5.75-3.12v4c3.3-0.33 6.6-0.66 10-1v3h9v-4h3v-7c1.32 0.66 2.64 1.32 4 2v4c3.52 0.08 6.62 0.0401 10-1-0.495-1.49-0.495-1.49-1-3 0.438-2.69 0.438-2.69 1-5h4c0.412-1.11 0.825-2.23 1.25-3.38 0.985-2.25 1.55-3.46 3.44-5.06 3.48-0.847 6.73-0.682 10.3-0.562v-2z" fill="#9333ea"/>
<path transform="translate(634,216)" d="m0 0c4.65 2.72 7.69 5.81 11.1 9.93 1.83 2.06 3.75 3.8 5.85 5.57 10 8.5 10 8.5 12 14.5-0.784-0.186-1.57-0.371-2.38-0.562-2.6-0.697-2.6-0.697-4.62 0.562-2-1-2-1-3-2-0.99 0.33-1.98 0.66-3 1-0.495-1.98-0.495-1.98-1-4-5.1-1.7-10.1-1.58-15.2 0-4.81 3.42-7.61 8.23-8.81 14h-2c0.857 9.42 0.857 9.42 6 17 0.99 0.495 0.99 0.495 2 1v2c1.32 0.33 2.64 0.66 4 1v3c0.908 0.206 1.82 0.413 2.75 0.625 4.08 1.73 4.98 3.63 7.25 7.38 0.887 0.887 1.77 1.77 2.69 2.69 2.31 2.31 2.31 2.31 3.31 5.31 2 1.21 2 1.21 4 2v2c0.99 0.33 1.98 0.66 3 1v4c1.12 0.364 1.12 0.364 2.27 0.734 5.53 2.57 8.85 8.25 11.2 13.7 0.5 2.56 0.5 2.56-0.5 4.56-0.359 2-0.695 4-1 6 0.99-0.33 1.98-0.66 3-1 0.33 1.65 0.66 3.3 1 5-1.32 0.33-2.64 0.66-4 1v3c-1.49 0.495-1.49 0.495-3 1 0.184 0.552 0.369 1.1 0.559 1.67 0.533 2.81 0.127 4.79-0.496 7.58-0.195 0.892-0.389 1.78-0.59 2.7-0.234 1.01-0.234 1.01-0.473 2.05 0.99-0.33 1.98-0.66 3-1 0.33 1.32 0.66 2.64 1 4-0.99 0.33-1.98 0.66-3 1-0.33 3.96-0.66 7.92-1 12h-2c-0.133 0.748-0.266 1.5-0.402 2.27-0.177 0.985-0.353 1.97-0.535 2.98-0.174 0.975-0.348 1.95-0.527 2.95-0.323 1.69-0.68 3.37-1.1 5.03-0.513 1.79-0.513 1.79-0.434 3.77 0.66 0.33 1.32 0.66 2 1 0.124 0.969 0.247 1.94 0.375 2.94 0.309 1.52 0.309 1.52 0.625 3.06 1.85 1.26 1.85 1.26 4 2 1.75 1.5 1.75 1.5 3 3v2h2c0.33 0.99 0.66 1.98 1 3 0.99 0.33 1.98 0.66 3 1v-2h2v2c0.619-0.33 1.24-0.66 1.88-1 2.12-1 2.12-1 4.12-1 0.268-0.639 0.536-1.28 0.812-1.94 1.19-2.06 1.19-2.06 4.19-3.06 0.66-0.66 1.32-1.32 2-2v3h2c-0.33-1.98-0.66-3.96-1-6 0.66-0.33 1.32-0.66 2-1 0.214 22.6 0.214 22.6-1 30-2.44 1.22-4 1.12-6.73 1.11-0.981-7.55e-5 -1.96-1.51e-4 -2.97-2.29e-4 -1.06-0.00516-2.12-0.0103-3.22-0.0156-1.63-0.00212-1.63-0.00212-3.29-0.00429-3.47-0.00561-6.95-0.0182-10.4-0.0309-2.35-0.00501-4.7-0.00958-7.05-0.0137-5.77-0.011-11.5-0.0278-17.3-0.0488v-2h-2c-0.611-32.9 2.29-62.3 22.6-89.4 1.7-3.15 1.37-4.18 0.371-7.55-5.33-8.16-13.9-15-20.8-21.9-1.34-1.33-2.67-2.67-4.01-4-3.49-3.49-6.99-6.97-10.5-10.5-3.57-3.56-7.15-7.13-10.7-10.7-6.99-6.98-14-14-21-20.9 1.44-4.08 2.91-5.95 6.36-8.62 1.77-1.49 3.17-3.09 4.64-4.88 2.73-3.3 5.67-5.81 9-8.5 1.69-1.64 3.35-3.31 5-5 1.35-1.38 2.71-2.75 4.06-4.12 0.651-0.663 1.3-1.33 1.97-2.01 1.89-1.8 3.85-3.35 5.96-4.87z" fill="#9333ea"/>
<path transform="translate(455,967)" d="m0 0c1.49 0.99 1.49 0.99 3 2 0.33-0.33 0.66-0.66 1-1 2-0.0408 4-0.0425 6 0-0.33 0.99-0.66 1.98-1 3 0.482 0.364 0.964 0.727 1.46 1.1 4.17 3.32 6.29 5.55 7.54 10.9 0.371 0.887 0.743 1.77 1.12 2.69 0.875 2.31 0.875 2.31 0.875 5.31h2c0.413 1.13 0.825 2.27 1.25 3.44 1.47 3.96 3.18 7.77 4.98 11.6 0.77 1.98 0.77 1.98 0.77 4.98 1.49 0.495 1.49 0.495 3 1 1.12 1.78 1.12 1.78 2.16 4.08 0.383 0.831 0.766 1.66 1.16 2.52 0.586 1.31 0.586 1.31 1.18 2.65 0.779 1.71 1.56 3.43 2.34 5.14 0.369 0.806 0.737 1.61 1.12 2.44 1.19 2.49 2.59 4.82 4.04 7.17 0.33 0.99 0.66 1.98 1 3 0.577 0.557 1.15 1.11 1.75 1.69 3.05 3.13 7.25 7.75 7.25 12.3h2c4 5.41 4 5.41 4 8h2c1.45 1.74 2.81 3.54 4.12 5.38 0.724 0.998 1.45 2 2.2 3.02 1.68 2.6 1.68 2.6 1.68 4.6 0.598 0.24 1.2 0.48 1.81 0.727 2.64 1.54 3.6 3.05 5.19 5.65 2.09 3.29 4.14 5.96 7 8.62 4 4.67 4 4.67 4 7h3c0.433 1.11 0.866 2.23 1.31 3.38 1.39 3.8 1.39 3.8 4.69 5.62 0.247 0.681 0.495 1.36 0.75 2.06 0.413 0.639 0.825 1.28 1.25 1.94 1.13 0.144 2.27 0.289 3.44 0.438 1.18 0.186 2.35 0.371 3.56 0.562 1.5 2.19 1.5 2.19 3 5 1.13 1.04 2.3 2.04 3.5 3 2.95 2.41 4.58 4.69 6.5 8 1.66 1.35 3.32 2.68 5 4v2l1.64 0.734c2.95 1.58 5.5 3.5 8.18 5.52 0.53 0.399 1.06 0.798 1.61 1.21 2.97 2.25 5.85 4.58 8.64 7.04 2.73 2.64 2.73 2.64 5.94 3.5 0.639 0.866 1.28 1.73 1.94 2.62 3.3 4.25 7.95 6.36 12.6 8.86 0.808 0.5 1.62 1 2.45 1.52v2c0.705 0.266 1.41 0.531 2.14 0.805 3.02 1.26 5.82 2.73 8.68 4.32 0.976 0.539 1.95 1.08 2.96 1.63 0.736 0.41 1.47 0.82 2.23 1.24v2c2.97 0.99 5.94 1.98 9 3v2c2.97 0.33 5.94 0.66 9 1 0.33 0.99 0.66 1.98 1 3 0.763-0.0412 1.53-0.0825 2.31-0.125 2.69 0.125 2.69 0.125 5.69 2.12 1.66 0.385 3.32 0.728 5 1v2h2l1 2c2.28 0.419 4.57 0.737 6.88 1 6.8 0.782 6.8 0.782 10.1 3 2.05 0.451 2.05 0.451 4.19 0.625 1.26 0.124 2.52 0.247 3.81 0.375l-1 2c0.66 0.33 1.32 0.66 2 1v3c0.553 0.0553 1.11 0.111 1.68 0.168l7.7 0.77c1.31 0.131 1.31 0.131 2.64 0.264l10.9 1.09c0.914 0.0914 1.83 0.183 2.77 0.277 0.832 0.0832 1.66 0.166 2.52 0.252 0.599 0.0599 1.2 0.12 1.81 0.181 0.33 1.32 0.66 2.64 1 4l1.69 0.148c13.8 1.35 13.8 1.35 16.3 3.85 0.312 2.88 0.312 2.88 0 6-1.81 1.94-1.81 1.94-4 3-0.99-0.33-1.98-0.66-3-1-2.04-0.178-4.08-0.319-6.12-0.438-4.61-0.33-8.93-0.856-13.4-1.98-1.86-0.439-3.73-0.804-5.61-1.13-32.7-5.78-64-21.8-91.9-39.4-0.58-0.367-1.16-0.734-1.76-1.11-10.9-6.97-21.1-14.8-31.2-22.9-0.982-0.777-1.96-1.55-2.98-2.36-2.35-1.87-4.69-3.75-7.02-5.64-0.888-0.714-1.78-1.43-2.69-2.16-0.927-0.75-1.85-1.5-2.81-2.27-0.815-0.659-1.63-1.32-2.47-2-7.94-6.72-15.5-13.8-22.8-21.2-1.42-1.43-2.85-2.85-4.28-4.28-5.19-5.2-10.2-10.5-14.9-16.1-0.889-1.02-1.78-2.04-2.67-3.06-16.6-19.3-32.4-40.4-44.3-62.9-0.757-1.4-1.52-2.79-2.27-4.19-8.7-16.2-16.9-32.7-24-49.6-0.288-0.681-0.575-1.36-0.872-2.06-1.35-3.33-1.88-5.46-1.88-9.12z" fill="#9333ea"/>
<path transform="translate(879,217)" d="m0 0c3.3 0.174 4.76 0.801 7.31 2.94 1.69 2.06 1.69 2.06 1.69 4.06 0.544 0.221 1.09 0.443 1.65 0.671 3.1 1.75 5.45 4.11 7.96 6.6 0.787 0.777 0.787 0.777 1.59 1.57 1.1 1.09 2.21 2.19 3.31 3.29 1.68 1.68 3.38 3.34 5.08 5 1.07 1.07 2.15 2.14 3.22 3.21 0.507 0.493 1.01 0.986 1.54 1.49 2.08 2.11 3.59 3.99 4.78 6.71-0.162 3.73-1.96 4.97-4.61 7.52-0.475 0.465-0.951 0.929-1.44 1.41-1.53 1.49-3.07 2.95-4.62 4.41-2.01 1.93-4 3.87-6 5.8-0.949 0.915-1.9 1.83-2.88 2.77-3.06 3.04-5.79 6.24-8.56 9.55-1.26 1.16-2.54 2.3-3.88 3.38-2.98 2.53-5.57 5.17-8.12 8.12-3.11 3.6-6.4 6.66-10 9.73-3.3 2.98-6.13 6.36-8.96 9.77-2.36-1.18-3.46-1.83-5-4-0.335-3.01-0.553-5.1 0-8 1.94-2.25 1.94-2.25 4-4 0.652-2.02 0.652-2.02 1-4 0.99-1.49 0.99-1.49 2-3-0.247-0.959-0.247-0.959-0.5-1.94-0.666-2.75 0.245-3.55 1.5-6.06 0.471-2.66 0.73-5.3 1-8-3.83-1.28-5.33-0.527-9 1l-1.5 1.5c-2.2 2.2-4.53 2.64-7.5 3.5-1.7 0.588-1.7 0.588-3.44 1.19-3.9 0.889-6.67 0.606-10.6-0.188 0.33 0.99 0.66 1.98 1 3-0.593 0.255-1.19 0.51-1.8 0.773-2.42 1.34-3.72 2.72-5.45 4.85-0.521 0.632-1.04 1.26-1.58 1.91-0.387 0.482-0.773 0.964-1.17 1.46-0.66-0.33-1.32-0.66-2-1h-2v-3c0.99-0.495 0.99-0.495 2-1v-3c0.619-0.0619 1.24-0.124 1.88-0.188 1.05-0.402 1.05-0.402 2.12-0.812 0.33-0.825 0.66-1.65 1-2.5 0.33-0.825 0.66-1.65 1-2.5 2.06-0.625 2.06-0.625 4-1 0.33-0.99 0.66-1.98 1-3 1.38-1.69 1.38-1.69 3-3h3c-1.32-0.33-2.64-0.66-4-1-1.02-3.11-1.42-5.73-1-9 2.47-3.78 5.67-6.66 9-9.69 0.852-0.815 1.7-1.63 2.58-2.47 4.22-4.01 8.56-7.83 13-11.6 1.81-1.59 3.34-3.33 4.86-5.19 2.98-3.51 6.2-6.48 9.7-9.46 2.42-2.09 4.63-4.31 6.86-6.6 0.66-0.66 1.32-1.32 2-2z" fill="#9333ea"/>
<path transform="translate(1179,339)" d="m0 0c0.495 1.49 0.495 1.49 1 3h2v2h2c2.44 3.66 2.19 6.29 2.06 10.5-0.0926 5.72 0.0861 11.3 0.73 17 0.22 2.69 0.133 5.28 0.0195 7.97-0.1 2.43-0.1 2.43 0.188 4.56 0.681 0.681 1.36 1.36 2.06 2.06 1.94 1.94 1.94 1.94 1.95 4.03-0.209 1.57-0.456 3.13-0.746 4.69-0.282 2.39 0.122 3.92 0.738 6.22-0.271 2.01-0.594 4.01-1 6h-1c-0.832-5.72-1.12-11.2-1-17h-2c0.156 0.808 0.312 1.62 0.473 2.45 0.195 1.07 0.389 2.14 0.59 3.24 0.197 1.06 0.394 2.11 0.598 3.2 0.335 3.07 0.293 5.19-0.66 8.11-1.64 1.04-3.31 2.05-5 3v3h-2.25c-2.82 0.688-2.82 0.688-3.73 2.74-0.296 0.704-0.593 1.41-0.898 2.13-1.54 3.49-1.81 3.97-5.44 5.75-1.83 0.681-1.83 0.681-3.69 1.38-1.94 1.51-3.73 3.11-5.52 4.79-1.48 1.21-1.48 1.21-3.48 1.21-0.33 1.98-0.66 3.96-1 6-2.47 0.495-2.47 0.495-5 1v2c-1.98 0.495-1.98 0.495-4 1-0.495 1.98-0.495 1.98-1 4-2.47 0.495-2.47 0.495-5 1 0.33 0.99 0.66 1.98 1 3-3.62 1.32-6.1 2-10 2v4c-3.46 1.07-6.64 1.1-10.2 1.06-1.08-0.00902-2.16-0.018-3.27-0.0273-1.23-0.0174-1.23-0.0174-2.48-0.0352 0.33-0.99 0.66-1.98 1-3v-1c-0.639-0.124-1.28-0.248-1.94-0.375-0.681-0.206-1.36-0.413-2.06-0.625-1.64-3.28-0.519-6.43 0-10h2c0.495-0.99 0.495-0.99 1-2 1.32 0.66 2.64 1.32 4 2 0.33-1.32 0.66-2.64 1-4h2c0.712-0.99 0.712-0.99 1.44-2 0.773-0.99 0.773-0.99 1.56-2h3c-0.206-1.05-0.412-2.1-0.625-3.19-0.375-3.81-0.0913-5.48 1.62-8.81-2.47 0.495-2.47 0.495-5 1v-3h4c0.33-0.66 0.66-1.32 1-2v2h4c0.33-1.32 0.66-2.64 1-4h2c0.33-1.32 0.66-2.64 1-4 0.33 1.32 0.66 2.64 1 4h2c-0.33-1.65-0.66-3.3-1-5 4.45-0.99 4.45-0.99 9-2-2.97-0.495-2.97-0.495-6-1v-2c1.48-0.495 1.48-0.495 3-1 0.495-4.95 0.495-4.95 1-10h-2c-1.91-11.4-2.22-22.4-2-34 6.71-0.969 6.71-0.969 9.31-1.25 1.99-0.666 1.99-0.666 2.94-3.31 0.247-0.804 0.495-1.61 0.75-2.44 0.681 0.99 0.681 0.99 1.38 2 0.536 0.66 1.07 1.32 1.62 2h2v-6c4.62-0.33 9.24-0.66 14-1v-2h-7c0.557-0.268 1.11-0.536 1.69-0.812 5.9-2.84 5.9-2.84 9.31-8.19z" fill="#9333ea"/>
<path transform="translate(321,288)" d="m0 0c4.78 0.487 8.56 1.13 13 3 1.99 0.376 3.99 0.72 6 1v1h-5v2c0.825 0.103 1.65 0.206 2.5 0.312 3.44 0.675 6.43 1.69 9.67 2.97 1.59 0.624 3.21 1.18 4.83 1.72 0.495 3.96 0.495 3.96 1 8l-3.12 1.56c-3.6 2.04-5.82 4.49-8.39 7.69-2.24 2.65-4.7 4.67-7.48 6.75h-2v2c-0.489 0.404-0.978 0.808-1.48 1.22-2.26 2.65-1.86 4.76-1.81 8.19 0.00967 1.25 0.0193 2.51 0.0293 3.8 0.0251 1.31 0.0503 2.62 0.0762 3.97 0.0151 1.34 0.0287 2.67 0.041 4.01 0.0354 3.27 0.0848 6.54 0.146 9.81h-2c-0.0747 4.41-0.129 8.82-0.165 13.2-0.015 1.5-0.0354 2.99-0.0615 4.49-0.342 11.5-0.342 11.5 3.23 22.3 2 1.42 2 1.42 4 2 0.33 0.66 0.66 1.32 1 2h3c0.199 1.45 0.199 1.45 0.402 2.92 0.177 1.26 0.353 2.53 0.535 3.83 0.174 1.25 0.348 2.51 0.527 3.8 0.396 2.55 0.84 4.97 1.54 7.45h3c1.06 1.63 2.05 3.3 3 5 0.557 0.557 1.11 1.11 1.69 1.69 0.433 0.433 0.866 0.866 1.31 1.31v2h3c0.413 0.701 0.825 1.4 1.25 2.12 1.96 3.22 4.13 5.09 7.03 7.45 1.69 1.4 3.26 2.78 4.72 4.43v2h2v2c0.99 0.33 1.98 0.66 3 1 0.464 1.48 0.464 1.48 0.938 3 0.351 0.99 0.701 1.98 1.06 3 2.03 0.969 2.03 0.969 4 1v2c0.99-0.33 1.98-0.66 3-1v3c3.3 3.53 7.25 6.23 12.1 7 5.31 0 9.26-0.456 13.2-4.12 0.835-0.928 0.835-0.928 1.69-1.88h2c0.66-0.99 1.32-1.98 2-3 2.13-0.688 2.13-0.688 4-1 0.66-2.31 1.32-4.62 2-7h-2c-1.44-5.15-2.43-9.6-2-15l2-2 13 13c0.866 0.846 1.73 1.69 2.62 2.56 4.05 4.16 4.05 4.16 5.38 6.44-0.263 4.31-3.14 6.41-6.12 9.25-1.01 0.975-2.01 1.95-3.02 2.93-0.49 0.478-0.981 0.956-1.49 1.45-2.44 2.43-4.65 5.05-6.89 7.67-2.05 2.36-4.25 4.53-6.48 6.71-0.825 0.846-1.65 1.69-2.5 2.56-6.51 6.35-6.51 6.35-10.3 6.69-4.77-1.87-8-5.29-11.2-9.25v-2h-2v-2c-0.835-0.34-0.835-0.34-1.69-0.688-2.96-1.68-4.97-3.85-7.31-6.31-0.598-0.557-1.2-1.11-1.81-1.69-1.19-1.31-1.19-1.31-1.19-3.31-0.536-0.206-1.07-0.413-1.62-0.625-3.29-1.91-5.97-4.42-8.38-7.38v-2h-2c-1.23-1.29-1.23-1.29-2.75-3.19-3.47-4.11-7.28-7.7-11.2-11.3-4.56-4.15-8.86-8.32-12.8-13.1-1.2-1.53-1.2-1.53-3.23-2.39v-2c-0.584-0.237-1.17-0.474-1.77-0.719-2.7-1.55-4.05-3.29-5.92-5.78-0.602-0.794-1.2-1.59-1.82-2.41-2.29-3.23-2.61-4.99-2.62-8.91-0.00282-1.02-0.00564-2.04-0.00854-3.08 0.00202-1.12 0.00405-2.24 0.00613-3.4-0.00175-1.18-0.0035-2.35-0.00531-3.57-0.00365-3.23-0.00279-6.47 3.79e-4 -9.7 0.00253-3.38 1.85e-4 -6.76-0.00139-10.1-0.00182-5.68 5.82e-4 -11.4 0.00534-17 0.00544-6.57 0.00368-13.1-0.00183-19.7-0.00453-5.63-0.00518-11.3-0.00256-16.9 0.00156-3.37 0.00176-6.73-0.00154-10.1-0.00253-3.75 0.00132-7.5 0.0069-11.3-0.00202-1.12-0.00405-2.24-0.00613-3.4 0.00282-1.02 0.00564-2.04 0.00854-3.08 3.77e-4 -0.888 7.54e-4 -1.78 0.00114-2.69 0.126-2.13 0.126-2.13 1.13-4.13z" fill="#9333ea"/>
<path transform="translate(772,315)" d="m0 0 2 2h-6v2h-6v2c1.05-0.143 1.05-0.143 2.12-0.289 0.91-0.111 1.82-0.222 2.76-0.336 0.905-0.116 1.81-0.232 2.74-0.352 1.18-0.0116 1.18-0.0116 2.38-0.0234 0.99 0.99 0.99 0.99 2 2h-6l1 2c0.736-0.228 1.47-0.456 2.23-0.691 0.976-0.287 1.95-0.575 2.96-0.871 0.963-0.29 1.93-0.58 2.92-0.879 3.02-0.583 4.95-0.37 7.89 0.441-3 2-3 2-4 2 1.36 0.433 1.36 0.433 2.75 0.875 2.57 0.89 4.86 1.84 7.25 3.12-1.32 0.33-2.64 0.66-4 1 3.49 1.48 3.49 1.48 7.19 2.25 0.598 0.248 1.2 0.495 1.81 0.75 0.68 2 1.34 4 2 6 2.42 2.75 2.42 2.75 5 5l2 2h2c0.495 2.48 0.495 2.48 1 5 0.557 0.0412 1.11 0.0825 1.69 0.125 3.49 1.32 5.04 4 7.31 6.88 0.66 0.33 1.32 0.66 2 1 0.534 3.37 1 6.6 1 10l4 1v3c0.66 0.33 1.32 0.66 2 1-0.99 0.66-1.98 1.32-3 2 1.26 4.02 1.26 4.02 2.94 7.88 1.03 2.06 1.71 4.07 2.44 6.25 1.16 3.22 1.16 3.22 3.81 5.38 0.598 0.165 1.2 0.33 1.81 0.5 0.99-0.66 1.98-1.32 3-2 0.66 1.98 1.32 3.96 2 6 0.99-0.33 1.98-0.66 3-1 3.19 0.938 3.19 0.938 6 2v4c3.98 1.33 7.85 1.07 12 1 0.124-0.619 0.247-1.24 0.375-1.88 0.625-2.12 0.625-2.12 2.62-4.12 0.648-2.57 0.648-2.57 1-5h2l2-4c0.66 0.33 1.32 0.66 2 1-0.351-0.99-0.701-1.98-1.06-3-1.25-4.26-0.699-7.66 0.0625-12h2c1.35 14.7 2.32 29.2 2 44-7.72 0.985-15.4 1.35-23.2 1.62-1.23 0.0516-2.45 0.103-3.71 0.156-17.7 0.635-17.7 0.635-25.1-0.781-2.16-3.24-2.26-4.2-2.31-7.95-0.0227-0.986-0.0454-1.97-0.0688-2.99-0.0297-1.58-0.0297-1.58-0.0601-3.19-0.619-18.9-2.52-36.6-16.3-50.9-13.3-11.8-27.5-14.1-44.6-14.1-1.77-0.0184-1.77-0.0184-3.58-0.0371-6.63-0.0111-12.7 0.371-19 2.22-0.968 0.272-1.94 0.544-2.93 0.824-8.9 3.07-15.9 8.19-23.1 14.2-0.33-1.98-0.66-3.96-1-6-1.49 0.495-1.49 0.495-3 1-0.81-2.91-1.22-4.46-0.0625-7.31 0.351-0.557 0.701-1.11 1.06-1.69h2c0.227-0.804 0.454-1.61 0.688-2.44 0.433-0.846 0.866-1.69 1.31-2.56 1.66-0.373 3.33-0.707 5-1 0.699-1.32 1.37-2.65 2-4 2.12-0.75 2.12-0.75 4-1h-5c0.33-1.32 0.66-2.64 1-4 2.17 0.506 4 1 6 2v-2c0.99 0.33 1.98 0.66 3 1 2.07 0.643 2.07 0.643 4 1 0.33-0.33 0.66-0.66 1-1 2.33-0.0409 4.67-0.0424 7 0v-2l-4-2c2.81-0.194 5.62-0.38 8.44-0.562 0.802-0.0561 1.6-0.112 2.43-0.17 2.04-0.129 4.09-0.203 6.13-0.268l1 1c0.33-0.66 0.66-1.32 1-2h-5v-1c3.3-0.33 6.6-0.66 10-1v-3c-1.65 0.66-3.3 1.32-5 2v-3c2.04-0.677 4.08-1.34 6.12-2 1.14-0.371 2.27-0.743 3.45-1.12 3.35-0.854 6-1.19 9.43-0.875z" fill="#9333ea"/>
<path transform="translate(1179,417)" d="m0 0c0.862 2.41 1.09 3.69 0.375 6.19-1.38 1.81-1.38 1.81-4 2.56-0.784 0.0825-1.57 0.165-2.38 0.25 1.98 0.66 3.96 1.32 6 2-1.39 3.25-2.95 5.03-5.69 7.25-2.89 2.44-5.43 4.92-7.88 7.81-2.67 3.16-5.48 5.75-8.68 8.36-2.65 2.37-4.85 5.09-7.09 7.84-1.68 1.73-1.68 1.73-3.76 2.72-2.44 1.29-2.77 2.56-3.92 5.02-1.66 1.6-1.66 1.6-3.5 3.06-2.44 1.95-3.72 3.27-5.5 5.94h-2c-0.33 0.99-0.66 1.98-1 3h-2c-0.377 0.876-0.377 0.876-0.762 1.77-1.39 2.51-2.9 4.02-5.05 5.92-1 0.903-1 0.903-2.02 1.82-2.54 1.75-4.07 2.45-7.17 2.49-2.28-1.7-2.28-1.7-4.5-4.12-1.1-1.18-1.1-1.18-2.22-2.38-1.13-1.23-1.13-1.23-2.28-2.49-1.66-1.67-3.33-3.34-5-5l-21-21c5.32-11.2 17-20.9 26.5-28.7 1.49-1.28 2.85-2.7 4.21-4.12 2.24-2.12 3.31-2.85 6.31-3.19v4c0.0232 0.816 0.0464 1.63 0.0703 2.47 0.018 0.855 0.0361 1.71 0.0547 2.59 0.0232 0.857 0.0464 1.71 0.0703 2.6-0.232 2.78-1.21 4.35-3.2 6.34 0.833 2.17 0.833 2.17 3 3h-2v9c1.32 0.33 2.64 0.66 4 1 0.99 0.33 1.98 0.66 3 1-1.32 1.32-2.64 2.64-4 4 7.92-0.495 7.92-0.495 16-1v-4c3.51-1.6 6.14-2.22 10-2v-2c-0.66-0.33-1.32-0.66-2-1 1.88-1.06 1.88-1.06 4-2 0.66 0.33 1.32 0.66 2 1 0.33-1.32 0.66-2.64 1-4l4-1v-2c1.65-0.33 3.3-0.66 5-1-0.495-1.49-0.495-1.49-1-3 3-3.19 6.16-6.05 9.56-8.81 0.744-0.605 1.49-1.21 2.25-1.83 2.18-1.36 2.18-1.36 6.18-1.36 0.103-0.639 0.206-1.28 0.312-1.94 0.227-0.681 0.454-1.36 0.688-2.06 3-1 3-1 5-1z" fill="#9333ea"/>
<path transform="translate(657,244)" d="m0 0c5.19 0.246 7.87 1.21 11.5 5 0.482 0.536 0.964 1.07 1.46 1.62 1.03 1.1 2.07 2.19 3.11 3.29 0.5 0.531 0.999 1.06 1.51 1.61 2.5 2.57 5.24 4.82 8.01 7.08 1.43 1.4 1.43 1.4 2.43 4.4 1.32 0.691 2.66 1.36 4 2 1.42 1.48 1.42 1.48 2.75 3.19 2.88 3.53 6.09 6.36 9.61 9.23 1.64 1.58 1.64 1.58 2.64 4.58h2v2h2v2c6.01 3.1 11.3 1.23 17.6-0.485 9.91-2.66 19.4-3.13 29.6-3.04 2.69 0.0214 5.39 7.1e-5 8.08-0.0254 10.4-0.0151 19.9 1.02 29.9 3.59 1.25 0.315 2.5 0.63 3.78 0.955 1.02 0.327 2.04 0.653 3.1 0.99 3.17 0.302 3.17 0.302 6.06-2.35 1.13-1.13 2.24-2.28 3.33-3.44 0.591-0.601 1.18-1.2 1.79-1.82 1.88-1.92 3.74-3.86 5.59-5.81 1.27-1.31 2.55-2.61 3.82-3.92 3.12-3.2 6.22-6.42 9.3-9.65 1.52 1.33 1.52 1.33 3 3-0.312 2.69-0.312 2.69-1 5h6c-0.99 0.66-1.98 1.32-3 2-0.66-0.33-1.32-0.66-2-1-0.33 0.99-0.66 1.98-1 3h-2c-0.33 1.32-0.66 2.64-1 4-1.32 0.33-2.64 0.66-4 1-0.33 1.65-0.66 3.3-1 5-2.48 0.495-2.48 0.495-5 1v3h-2c0.33 0.66 0.66 1.32 1 2h3c-0.5 1.88-0.5 1.88-2 4-5.68 1.76-11.1 2.38-17 2.62-1.16 0.058-1.16 0.058-2.35 0.117-1.88 0.093-3.77 0.176-5.65 0.258 0.33 0.99 0.66 1.98 1 3-0.699-0.168-1.4-0.335-2.12-0.508-0.91-0.204-1.82-0.407-2.76-0.617-0.905-0.209-1.81-0.418-2.74-0.633-0.786-0.0799-1.57-0.16-2.38-0.242l-2 2c-2.37 0.301-4.74 0.495-7.12 0.625-1.28 0.0748-2.56 0.15-3.88 0.227-0.987 0.049-1.97 0.098-2.99 0.148v2c-8.57 2.26-19.4 3.85-28 1v-2c-3.41 0.954-6.74 1.9-10.1 3.12-3.32 0.99-5.49 1.37-8.94 0.875-1.58-1.05-1.58-1.05-3.25-2.38-4.22-3.32-8.56-3.83-13.8-4.62-1.34-0.318-2.67-0.646-4-1l1-2c-0.639-0.557-1.28-1.11-1.94-1.69-2.3-2.57-2.54-3.99-3.06-7.31-1.88-2.16-1.88-2.16-4.56-2.94-1.21-0.526-1.21-0.526-2.44-1.06-0.33-0.99-0.66-1.98-1-3h-3v-4h-3v-6c-0.784-0.0825-1.57-0.165-2.38-0.25-2.62-0.75-2.62-0.75-3.94-2.81-0.227-0.639-0.454-1.28-0.688-1.94h-2c-0.33-1.32-0.66-2.64-1-4-1.11 0.124-1.11 0.124-2.25 0.25-3.56-0.323-4.45-1.63-6.75-4.25l-2-1v-2l-2-1v-3c-0.66-0.33-1.32-0.66-2-1-1.19-2.94-1.19-2.94-2-6 0.33-0.66 0.66-1.32 1-2z" fill="#9333ea"/>
<path transform="translate(1084,828)" d="m0 0c0.99 0.66 1.98 1.32 3 2-3.47 44.5-3.47 44.5-6.56 64.7-0.197 1.3-0.395 2.6-0.598 3.94-1.17 7.27-2.72 14.3-4.84 21.4h-1c-0.0271-1.6-0.0464-3.21-0.0625-4.81-0.0116-0.893-0.0232-1.79-0.0352-2.71 0.0977-2.48 0.0977-2.48 1.1-5.48-0.99-0.99-1.98-1.98-3-3 0.495-1.49 0.495-1.49 1-3v-1h-1v-8c2.97-0.495 2.97-0.495 6-1v-2c-0.619-0.0412-1.24-0.0825-1.88-0.125-0.701-0.289-1.4-0.577-2.12-0.875-1.25-3.06-1.25-3.06-2-6-0.99 0.495-0.99 0.495-2 1v-2h-3c-0.495 0.99-0.495 0.99-1 2-1.65-0.33-3.3-0.66-5-1v-2h-8c-0.495 0.99-0.495 0.99-1 2-2.94 0.633-2.94 0.633-6.56 1.12-1.8 0.251-1.8 0.251-3.63 0.508-1.39 0.182-1.39 0.182-2.81 0.367 0.33 0.99 0.66 1.98 1 3-0.938 2.19-0.938 2.19-2 4-0.908-0.0412-1.82-0.0825-2.75-0.125-3.14-0.121-3.14-0.121-5.19 1.19-3.14 1.43-5.76 0.573-9.06-0.0625-0.268 0.804-0.536 1.61-0.812 2.44-0.588 1.27-0.588 1.27-1.19 2.56-1.49 0.495-1.49 0.495-3 1-0.495 0.99-0.495 0.99-1 2-1.24-4.44-0.736-7.94 0.125-12.4 0.229-1.28 0.459-2.55 0.695-3.87 2.35-7.35 7.66-11.1 13.7-15.4 1.43-1.05 2.85-2.1 4.28-3.15 0.709-0.519 1.42-1.04 2.15-1.57 3.06-2.26 6.07-4.58 9.07-6.9 3.95-3.06 7.93-6.08 11.9-9.08 2.01-1.51 4.02-3.03 6.03-4.55 6.88-5.2 13.7-10.4 21-15z" fill="#9333ea"/>
<path transform="translate(322,287)" d="m0 0c7.08-0.0759 14.2-0.129 21.3-0.165 2.41-0.0151 4.82-0.0356 7.23-0.0615 3.46-0.0363 6.92-0.0534 10.4-0.0667 1.08-0.0155 2.17-0.031 3.28-0.0469 1-2.27e-4 2-4.53e-4 3.03-6.87e-4 0.884-0.00666 1.77-0.0133 2.68-0.0202 0.706 0.119 1.41 0.238 2.14 0.361 2.43 3.64 2.24 5.34 2.23 9.67 2.92e-4 0.673 5.84e-4 1.35 8.85e-4 2.04-0.00139 2.22-0.0169 4.45-0.0326 6.67-0.00373 1.54-0.00658 3.09-0.00858 4.63-0.00763 4.06-0.0273 8.12-0.0494 12.2-0.0205 4.14-0.0296 8.28-0.0397 12.4-0.0214 8.13-0.0556 16.3-0.0977 24.4-0.99-0.495-0.99-0.495-2-1 0.0232-0.574 0.0464-1.15 0.0703-1.74 0.202-9.5-0.977-18.8-2.07-28.3l-2 2c-0.33-3.3-0.66-6.6-1-10-2.98-0.703-2.98-0.703-6-1l-2 2h-4v3l2 1c-1.71 1.71-4.05 1.65-6.38 2.06-0.977 0.177-1.95 0.353-2.96 0.535-2.66 0.402-2.66 0.402-5.66 0.402-1.51 3.01-1.41 6.19-1.62 9.5-0.0773 1.03-0.0773 1.03-0.156 2.09-0.341 3.82-0.341 3.82 0.781 7.41-0.66 0.66-1.32 1.32-2 2l1 1c-0.0656 2.17-0.204 4.34-0.375 6.5-0.0993 1.27-0.199 2.54-0.301 3.85-0.317 3.57-0.71 7.12-1.14 10.7-0.285 3-0.252 5.96-0.188 8.98-0.99-1.32-1.98-2.64-3-4-0.0765 4.52-0.102 8.59 1 13 0.99-0.99 0.99-0.99 2-2v14c-6 0-6 0-7.52-1.26-5.71-6.71-4.87-16.2-4.73-24.5 0.00516-1.21 0.0103-2.41 0.0156-3.65 0.0445-5.01 0.109-9.7 1.23-14.6h2c-0.0408-0.832-0.0815-1.66-0.124-2.52-0.146-3.09-0.283-6.18-0.414-9.28-0.0871-2-0.185-3.99-0.283-5.99-0.0516-1.25-0.103-2.51-0.156-3.8-0.0524-1.16-0.105-2.31-0.159-3.51 0.135-2.91 0.135-2.91 2.14-5.91h2v-2c0.557-0.227 1.11-0.454 1.69-0.688 4.08-2.32 6.85-5.74 9.75-9.38 2.71-3.1 5.07-4.83 8.56-6.94-0.186-0.784-0.371-1.57-0.562-2.38-0.438-2.62-0.438-2.62 0.562-4.62-0.887-0.144-1.77-0.289-2.69-0.438-2.78-0.473-5.55-0.993-8.31-1.56v-2c-2.97-0.495-2.97-0.495-6-1-0.33-0.99-0.66-1.98-1-3-2.79-1.03-2.79-1.03-6.06-1.69-1.1-0.251-2.21-0.503-3.35-0.762-0.855-0.182-1.71-0.364-2.59-0.551v-2z" fill="#9333ea"/>
<path transform="translate(1122,1054)" d="m0 0c5.7 0.185 8.61 4.09 12.3 7.94 0.645 0.646 1.29 1.29 1.96 1.96 4.73 4.82 4.73 4.82 4.73 7.1h2c-0.33 1.98-0.66 3.96-1 6-0.743-0.186-1.48-0.371-2.25-0.562-6.19-0.722-12.8-0.417-18.8 1.56 0.495 1.48 0.495 1.48 1 3-0.619 0.0412-1.24 0.0825-1.88 0.125-0.701 0.289-1.4 0.578-2.12 0.875-1.25 2.92-1.25 2.92-2 6-0.33 0.66-0.66 1.32-1 2 0.199 2.11 0.483 4.22 0.812 6.31 0.171 1.13 0.343 2.26 0.52 3.43 0.609 2.97 1.53 5.47 2.67 8.26v3c1.32 0.66 2.64 1.32 4 2v3c1.32 0.33 2.64 0.66 4 1v2c0.619 0.227 1.24 0.454 1.88 0.688 2.12 1.31 2.12 1.31 3.06 3.81 0.811 2.71 0.811 2.71 3.38 3.5 0.887 0.33 1.77 0.66 2.69 1 1.71 1.62 3.37 3.29 5 5 1.09 0.908 2.2 1.8 3.31 2.69 0.887 0.763 1.77 1.53 2.69 2.31v2c0.565 0.233 1.13 0.467 1.71 0.707 5.01 2.83 9.84 8.14 12.2 13.4 0.433 1.62 0.746 3.27 1.04 4.93 0.625 1.35 1.27 2.7 2 4-0.66 0.99-1.32 1.98-2 3-5.31-1.49-8.41-4.97-12.2-8.77-0.705-0.696-1.41-1.39-2.14-2.11-2.32-2.3-4.63-4.61-6.95-6.92-1.61-1.6-3.22-3.2-4.83-4.81-3.37-3.36-6.73-6.72-10.1-10.1-4.31-4.32-8.65-8.62-13-12.9-3.33-3.3-6.64-6.61-9.95-9.93-1.59-1.59-3.19-3.18-4.79-4.76-2.23-2.21-4.45-4.43-6.66-6.66-0.669-0.656-1.34-1.31-2.03-1.99-0.597-0.608-1.19-1.22-1.81-1.84-0.788-0.787-0.788-0.787-1.59-1.59-0.987-1.61-0.987-1.61-0.772-3.66 1.2-3 3.21-4.92 5.41-7.27 0.478-0.511 0.956-1.02 1.45-1.55 4.18-4.43 8.45-8.76 12.7-13.1 0.621-0.626 1.24-1.25 1.88-1.9 10.2-10.2 10.2-10.2 13.3-10.2v-2z" fill="#9333ea"/>
<path transform="translate(330,1153)" d="m0 0c3.96 0.33 7.92 0.66 12 1l-4 2c-1.02 0.979-2.02 1.98-3 3-0.99 0.66-1.98 1.32-3 2 0.186 0.619 0.371 1.24 0.562 1.88 0.438 2.12 0.438 2.12-0.562 4.12h4c0.33 0.66 0.66 1.32 1 2 0.908-0.371 1.81-0.743 2.75-1.12 3.25-0.875 3.25-0.875 5.62 0 0.536 0.371 1.07 0.743 1.62 1.12-0.33 0.66-0.66 1.32-1 2-0.66-0.33-1.32-0.66-2-1-1.03 2.79-1.05 3.87-0.0625 6.75 0.351 0.743 0.701 1.48 1.06 2.25-0.495 0.495-0.495 0.495-1 1 0.66 0.33 1.32 0.66 2 1 0.495-1.48 0.495-1.48 1-3v39h-1v-13h-2c-1.34 11.3-1.1 22.6-1 34-0.66-0.33-1.32-0.66-2-1-1.33-5.22-1.11-10.5-1.06-15.9 0.00451-0.879 0.00902-1.76 0.0137-2.66 0.0117-2.15 0.0296-4.31 0.0488-6.46-1.26 11.8-1.26 11.8-0.312 23.4 0.41 4.68-0.814 7.29-2.69 11.6h-8c-0.33-1.32-0.66-2.64-1-4v2c-3 0-3 0-4.5-1.44-0.495-0.516-0.99-1.03-1.5-1.56-0.99-0.33-1.98-0.66-3-1-0.984-2.62-0.984-2.62-1.75-5.88-0.263-1.07-0.526-2.14-0.797-3.24-0.453-2.88-0.453-2.88 0.547-5.88-0.33-0.99-0.66-1.98-1-3 0.0614-2.19 0.194-4.38 0.375-6.56 0.0902-1.16 0.18-2.31 0.273-3.5 0.352-2.93 0.352-2.93 1.35-4.93-2.48 0.495-2.48 0.495-5 1-1.03-3.09-0.975-4.53-0.562-7.69 0.102-0.808 0.204-1.62 0.309-2.45 0.0838-0.615 0.168-1.23 0.254-1.86h2c-0.33-3.63-0.66-7.26-1-11h6c0.124-0.639 0.248-1.28 0.375-1.94 0.206-0.681 0.413-1.36 0.625-2.06 0.66-0.33 1.32-0.66 2-1-0.66-1.32-1.32-2.64-2-4 1.32-0.33 2.64-0.66 4-1v-4h2v3c1.65 0.33 3.3 0.66 5 1v-3h-3c-0.201-3.63 0.142-5.87 2-9-1.65 0.33-3.3 0.66-5 1-2.06-4.35-2.06-4.35-1.81-7.19 0.812-1.81 0.812-1.81 3.81-3.81h2v-1z" fill="#9333ea"/>
<path transform="translate(634,216)" d="m0 0c4.65 2.72 7.69 5.81 11.1 9.93 1.83 2.06 3.75 3.8 5.85 5.57 10 8.5 10 8.5 12 14.5-0.784-0.186-1.57-0.371-2.38-0.562-2.6-0.697-2.6-0.697-4.62 0.562-2-1-2-1-3-2-0.99 0.33-1.98 0.66-3 1-0.495-1.98-0.495-1.98-1-4-5.1-1.7-10.1-1.58-15.2 0-4.81 3.42-7.61 8.23-8.81 14h-2c0.857 9.42 0.857 9.42 6 17 0.99 0.495 0.99 0.495 2 1v2c1.32 0.33 2.64 0.66 4 1v3c0.908 0.206 1.82 0.413 2.75 0.625 4.08 1.73 4.98 3.63 7.25 7.38 0.887 0.887 1.77 1.77 2.69 2.69 2.31 2.31 2.31 2.31 3.31 5.31 2 1.21 2 1.21 4 2v2c0.99 0.33 1.98 0.66 3 1v4c1.14 0.371 1.14 0.371 2.31 0.75 3.01 1.4 4.05 2.39 5.69 5.25 0.875 2.5 0.875 2.5 1 5-1.44 2.31-1.44 2.31-3 4-4.26-1.65-7.1-4.83-10.2-8.01-0.615-0.615-1.23-1.23-1.86-1.86-2.03-2.03-4.05-4.07-6.07-6.1-1.41-1.41-2.81-2.82-4.22-4.23-3.7-3.71-7.39-7.42-11.1-11.1-3.77-3.79-7.55-7.58-11.3-11.4-7.41-7.43-14.8-14.9-22.2-22.3 1.44-4.08 2.91-5.95 6.36-8.62 1.77-1.49 3.17-3.09 4.64-4.88 2.73-3.3 5.67-5.81 9-8.5 1.69-1.64 3.35-3.31 5-5 1.35-1.38 2.71-2.75 4.06-4.12 0.651-0.663 1.3-1.33 1.97-2.01 1.89-1.8 3.85-3.35 5.96-4.87z" fill="#9333ea"/>
<path transform="translate(1168,714)" d="m0 0h23v2c5.28 0.33 10.6 0.66 16 1v3h-5c0.495 1.49 0.495 1.49 1 3-1.65 0.33-3.3 0.66-5 1 0.687 0.0374 1.37 0.0748 2.08 0.113 0.901 0.0657 1.8 0.131 2.73 0.199 1.34 0.087 1.34 0.087 2.71 0.176 2.84 0.585 3.64 1.36 5.48 3.51 2.1 1.18 2.1 1.18 4 2-4.84 1.57-9.86 0.97-14.9 0.84-3.22-0.184-3.22-0.184-5.12 2.16v-2h-2c-0.33 2.31-0.66 4.62-1 7l-4-2c-0.66 3.96-1.32 7.92-2 12h2v2c1.32 0.33 2.64 0.66 4 1v2c1.45 0.186 1.45 0.186 2.94 0.375 1.01 0.206 2.02 0.413 3.06 0.625 0.33 0.66 0.66 1.32 1 2 2.13 0.467 2.13 0.467 4.56 0.625 0.826 0.0748 1.65 0.15 2.5 0.227 0.638 0.049 1.28 0.098 1.93 0.148v2h6c0.33 0.99 0.66 1.98 1 3-0.99 0.33-1.98 0.66-3 1v4h-5v2c-5.38 0.074-10.7 0.129-16.1 0.165-1.83 0.0151-3.66 0.0356-5.49 0.0615-2.63 0.0363-5.25 0.0534-7.88 0.0667-0.821 0.0155-1.64 0.031-2.49 0.0469-2.3 6.87e-4 -2.3 6.87e-4 -6.02-0.34-2.08-3.11-2.26-3.91-2.35-7.47-0.0263-0.901-0.0527-1.8-0.0798-2.73-0.0178-0.972-0.0357-1.94-0.054-2.95-0.0241-1-0.0482-2.01-0.0731-3.04-0.0483-2.12-0.0917-4.24-0.131-6.37-0.0616-3.24-0.145-6.48-0.23-9.72-0.0443-2.06-0.0873-4.13-0.129-6.19-0.0259-0.966-0.0518-1.93-0.0786-2.93-0.0137-0.911-0.0274-1.82-0.0416-2.76-0.0243-1.19-0.0243-1.19-0.049-2.41 0.216-2.45 0.216-2.45 2.22-8.45z" fill="#9333ea"/>
<path transform="translate(622,507)" d="m0 0c1.33 0.155 2.67 0.3 4 0.438 3.04 0.352 5.36 0.912 8 2.56v5c2.97 0.495 2.97 0.495 6 1 0.495 3.96 0.495 3.96 1 8 1.65-0.33 3.3-0.66 5-1 0.33-2.64 0.66-5.28 1-8h4c0.495 1.49 0.495 1.49 1 3h-2c0.186 0.784 0.371 1.57 0.562 2.38 0.438 2.62 0.438 2.62-0.562 4.62h-2v2c-4.29 0.99-8.58 1.98-13 3v2h7c-3.27 1.91-5.99 2.36-9.75 2.62-0.985 0.0748-1.97 0.15-2.98 0.227-0.748 0.049-1.5 0.098-2.27 0.148 0.495 1.49 0.495 1.49 1 3-5.75 0.125-5.75 0.125-8-1v-3h-2v3h-3c-0.495-0.99-0.495-0.99-1-2h-3c0.495 0.454 0.99 0.908 1.5 1.38 1.5 1.62 1.5 1.62 1.5 3.62h-4c-0.33-0.99-0.66-1.98-1-3 0.33-0.66 0.66-1.32 1-2h-4v3h-4c0.99 0.66 1.98 1.32 3 2-0.843 0.0606-1.69 0.121-2.55 0.184-1.1 0.0838-2.19 0.168-3.32 0.254-1.09 0.0812-2.18 0.162-3.3 0.246-2.77 0.146-2.77 0.146-4.82 1.32-0.66-0.66-1.32-1.32-2-2v-5h-10c0.66-0.66 1.32-1.32 2-2 0.243-2.21 0.243-2.21 0.125-4.62-0.0619-2.17-0.0619-2.17-0.125-4.38-4.46-0.99-4.46-0.99-9-2v-3h-2v-3c1.61 0.0619 1.61 0.0619 3.25 0.125 3.57 0.163 3.57 0.163 5.69-1.19 2.46-1.12 3.55-0.849 6.19-0.438 1.28 0.165 2.56 0.33 3.88 0.5 0.66-0.66 1.32-1.32 2-2h4v-3c6.15-0.879 6.15-0.879 8-1 0.495 0.495 0.495 0.495 1 1 2.01-0.287 4.01-0.619 6-1-0.66-0.66-1.32-1.32-2-2 4.76-1.59 9.21-1.31 14 0z" fill="#9333ea"/>
<path transform="translate(1326,780)" d="m0 0c3.44 3.4 6.79 6.87 10.1 10.4 0.837 0.906 1.67 1.81 2.54 2.75 6.33 7.43 6.33 7.43 6.53 11.4-1.28 2.77-2.92 4.23-5.36 6.03-2.45 1.95-4.56 4.18-6.77 6.41-1.88 1.78-3.78 3.56-5.69 5.31-0.953 0.883-1.91 1.77-2.89 2.68-2.43 2.01-2.43 2.01-4.43 2.01-0.33 0.99-0.66 1.98-1 3-3.51 3.52-7.06 6.72-12.1 7.44-7.58-3.71-12.6-11.4-17.8-17.8-2.48-2.98-5.13-5.65-7.97-8.29-1.21-1.34-1.21-1.34-1.21-3.34h-2c-1.51-1.64-1.51-1.64-3.12-3.81-0.808-1.06-0.808-1.06-1.63-2.14-1.24-2.04-1.24-2.04-1.24-5.04 3.75-1.12 3.75-1.12 6 0 0.33-1.32 0.66-2.64 1-4-0.99-0.33-1.98-0.66-3-1 0.99-0.33 1.98-0.66 3-1 0.66 1.65 1.32 3.3 2 5h2c0.33 0.99 0.66 1.98 1 3 0.99 0.66 1.98 1.32 3 2v2h2c0.474 0.639 0.949 1.28 1.44 1.94 1.47 2.35 1.47 2.35 4.56 3.06v3c6.35 1.47 13.3 1.5 19-2 0.805-2.05 0.805-2.05 1-4 1.32-0.33 2.64-0.66 4-1 0.66 0.99 1.32 1.98 2 3h-2v2c3-1.29 3-1.29 6-3 0.495-1.49 0.495-1.49 1-3-0.66-0.33-1.32-0.66-2-1 0.0838-0.594 0.168-1.19 0.254-1.8 0.806-6.56 0.555-12.6-0.254-19.2 0.66-0.33 1.32-0.66 2-1z" fill="#9333ea"/>
<path transform="translate(391,1053)" d="m0 0c6.98 5.88 13.5 12.2 20 18.6 1.36 1.34 2.73 2.67 4.1 3.99 1.99 1.92 3.96 3.87 5.93 5.82 0.618 0.59 1.24 1.18 1.87 1.79 4.13 4.15 4.13 4.15 4.14 7.58-1.41 3.15-3.38 5.26-5.76 7.76-0.861 0.918-1.72 1.84-2.61 2.78-2.52 2.6-5.07 5.17-7.64 7.72-0.965 0.965-1.93 1.93-2.89 2.89-2.7 2.7-5.4 5.4-8.11 8.11-0.66-0.33-1.32-0.66-2-1 0.681-0.743 1.36-1.48 2.06-2.25 2.22-2.51 2.22-2.51 1.69-5.06-0.248-0.557-0.495-1.11-0.75-1.69-1.65 0.99-3.3 1.98-5 3 0.432-3.6 0.918-6.78 2.19-10.2 0.991-3.43 0.413-3.79-1.19-6.81 0-2.01 0.00275-4.02 0.0664-6.04-0.0877-2.6-1.03-4.61-2.07-6.96 0.33-0.66 0.66-1.32 1-2-1.98-0.66-3.96-1.32-6-2v-2c-2.97-0.33-5.94-0.66-9-1 0.33-0.66 0.66-1.32 1-2-0.66-0.66-1.32-1.32-2-2 2.64-1.98 5.28-3.96 8-6-1.98-3.46-1.98-3.46-4-7 2.31-1.98 4.62-3.96 7-6z" fill="#9333ea"/>
<path transform="translate(651,351)" d="m0 0h2c0.282 5.55 0.198 8.33-3 13-1.72 4.13-2.27 6.68-1 11 0.33-1.65 0.66-3.3 1-5 3.23 3.23 3.26 7.55 4.12 11.9 0.912 3.18 1.63 3.86 3.88 6.07 0.512 2.48 0.512 2.48 0.688 5.19 0.0986 1.35 0.0986 1.35 0.199 2.73 0.0374 0.687 0.0748 1.37 0.113 2.08 1.32 0.33 2.64 0.66 4 1-0.99 2.48-0.99 2.48-2 5 2.48-0.495 2.48-0.495 5-1 0.66 1.32 1.32 2.64 2 4h4c-0.99 2.48-0.99 2.48-2 5h4c-0.33 1.65-0.66 3.3-1 5 2.97-0.342 2.97-0.342 6-1l1-2h-5v-2c5.56-0.915 9.68-1.32 15 1v2c-0.99 0.495-0.99 0.495-2 1 0.99 0.33 1.98 0.66 3 1 0.33 1.32 0.66 2.64 1 4h-49v-2h-2c-0.886-47.6-0.886-47.6 10-68z" fill="#9333ea"/>
<path transform="translate(1234,749)" d="m0 0c6.75-0.125 6.75-0.125 9 1v2h2v9c0.784-0.186 1.57-0.371 2.38-0.562 2.62-0.438 2.62-0.438 4.62 0.562v-4h2l6 9h3c0.99 0.33 1.98 0.66 3 1v5h3c1.73 1.94 3.4 3.95 5 6l2 2v2c0.555 3.94 0.555 3.94 3 7h3c0.495 1.98 0.495 1.98 1 4-1.48 0.495-1.48 0.495-3 1-0.33-0.66-0.66-1.32-1-2h-2c0.66 0.33 1.32 0.66 2 1-0.33 1.32-0.66 2.64-1 4h-6v2h-2c-1.29-1.45-2.5-2.96-3.69-4.5-4.82-6.06-10.1-11.6-15.4-17.2-0.631-0.66-1.26-1.32-1.91-2-0.571-0.59-1.14-1.18-1.73-1.79-1.23-1.52-1.23-1.52-1.23-3.52-3.73-1.24-7.27-1.23-11.2-1.32-0.795-0.0208-1.59-0.0416-2.41-0.063-2.54-0.0653-5.07-0.124-7.61-0.183-1.72-0.0432-3.44-0.0868-5.16-0.131-4.22-0.107-8.43-0.208-12.7-0.307v-1h5v-4c0.66-0.66 1.32-1.32 2-2v-2h-6v-2c0.743 0.0619 1.48 0.124 2.25 0.188 3.23-0.22 4.31-1.16 6.75-3.19h2v-2c8.41 1.49 8.41 1.49 17 3v-4h-2v-2z" fill="#9333ea"/>
<path transform="translate(879,217)" d="m0 0c3.26 0.265 4.78 0.814 7.31 2.94 1.69 2.06 1.69 2.06 1.69 4.06h2v2h-2v7h-2v2c-0.99 0.495-0.99 0.495-2 1 0.99 0.66 1.98 1.32 3 2v1c0.186 0.763 0.371 1.53 0.562 2.31 0.434 2.67 0.28 4.16-0.562 6.69h-3c0.495 1.98 0.495 1.98 1 4-0.99 0.66-1.98 1.32-3 2v3c-1.13 0.144-2.27 0.289-3.44 0.438-3.37 0.174-3.37 0.174-4.56 1.56-5.41 0.471-5.41 0.471-7.88-1.5-0.371-0.495-0.742-0.99-1.12-1.5h4c-3.82-1.37-7.07-0.68-11 0v-2l2-1c-1.18 0.0928-1.18 0.0928-2.38 0.188-0.866-0.0619-1.73-0.124-2.62-0.188-0.66-0.99-1.32-1.98-2-3-0.557 0.66-1.11 1.32-1.69 2-2.31 2-2.31 2-5.06 2.25-0.742-0.0825-1.49-0.165-2.25-0.25 0.562-3.37 1.42-4.69 4.12-6.75 2.65-2.15 4.92-4.33 7.12-6.94 6.91-8.1 14.6-15.4 22.8-22.3 0.33-0.33 0.66-0.66 1-1z" fill="#9333ea"/>
<path transform="translate(869,376)" d="m0 0h2c1.35 14.7 2.32 29.2 2 44-7.22 0.965-14.3 1.12-21.6 1.06-1.1-0.00451-2.21-0.00902-3.35-0.0137-2.7-0.0117-5.39-0.0281-8.09-0.0488 0.33-2.97 0.66-5.94 1-9-0.99-0.33-1.98-0.66-3-1v-2h-4v4h-2c-1.53-4.33-2.63-8.62-3.56-13.1-1.13-5.46-1.13-5.46-2.44-10.9h2c0.454 0.825 0.908 1.65 1.38 2.5 0.536 0.825 1.07 1.65 1.62 2.5 3.78 0.298 3.78 0.298 6-1 0.66 1.98 1.32 3.96 2 6 0.99-0.33 1.98-0.66 3-1 3.19 0.938 3.19 0.938 6 2v4c3.98 1.33 7.85 1.07 12 1 0.124-0.619 0.247-1.24 0.375-1.88 0.625-2.12 0.625-2.12 2.62-4.12 0.648-2.57 0.648-2.57 1-5h2c0.66-1.32 1.32-2.64 2-4 0.66 0.33 1.32 0.66 2 1-0.351-0.99-0.701-1.98-1.06-3-1.25-4.26-0.699-7.66 0.0625-12z" fill="#9333ea"/>
<path transform="translate(1044,860)" d="m0 0c0.66 0.99 1.32 1.98 2 3 4.35-0.706 4.35-0.706 8.62-1.75 2.38-0.25 2.38-0.25 4.69 1 1.69 1.75 1.69 1.75 1.69 4.75-0.639 0.247-1.28 0.495-1.94 0.75-2.25 1.07-2.25 1.07-2.81 3.38-0.0825 0.619-0.165 1.24-0.25 1.88h-3c0.495 1.49 0.495 1.49 1 3-1.98 0.99-3.96 1.98-6 3v2c-4.45 1.49-4.45 1.49-9 3 0.33 0.99 0.66 1.98 1 3-0.938 2.19-0.938 2.19-2 4-0.908-0.0412-1.82-0.0825-2.75-0.125-3.14-0.121-3.14-0.121-5.19 1.19-3.14 1.43-5.76 0.573-9.06-0.0625-0.402 1.21-0.402 1.21-0.812 2.44-0.588 1.27-0.588 1.27-1.19 2.56-1.49 0.495-1.49 0.495-3 1-0.33 0.66-0.66 1.32-1 2-1.24-4.44-0.736-7.94 0.125-12.4 0.229-1.28 0.459-2.55 0.695-3.87 2.42-7.59 8.09-11.4 14.3-15.9 0.715-0.529 1.43-1.06 2.17-1.6 8.35-6.15 8.35-6.15 11.7-6.15z" fill="#9333ea"/>
<path transform="translate(563,753)" d="m0 0c0.99 0.66 1.98 1.32 3 2v4h14v8h2c0.33-1.32 0.66-2.64 1-4 0.66 0.33 1.32 0.66 2 1v3h2c0.33-1.32 0.66-2.64 1-4-0.387 5.71-0.87 8.74-5 13 0.99 0.33 1.98 0.66 3 1-0.33 0.66-0.66 1.32-1 2h-42c0-5 1.91-6.56 5.19-9.94 0.483-0.512 0.966-1.02 1.46-1.55 2.32-2.45 4.68-4.84 7.07-7.21 2.29-2.31 4.3-4.72 6.28-7.3z" fill="#9333ea"/>
<path transform="translate(1162,1091)" d="m0 0c6.4 5.28 12.2 11.1 18.1 16.9 1.06 1.06 2.12 2.12 3.18 3.17 2.21 2.21 4.41 4.41 6.62 6.62 2.82 2.83 5.64 5.65 8.47 8.47 2.18 2.18 4.36 4.36 6.54 6.54 1.04 1.04 2.08 2.08 3.12 3.12 1.45 1.45 2.91 2.91 4.36 4.36 0.825 0.826 1.65 1.65 2.5 2.5 4.37 4.63 5.52 6.81 5.39 13.3-0.0155 1.23-0.0309 2.46-0.0469 3.72-0.203 3.21-0.203 3.21-1.2 6.21h-2v-6c-0.66 1.98-1.32 3.96-2 6h-1c-1.59-4.87-2.21-8.81-2-14-0.804-0.206-1.61-0.412-2.44-0.625-0.846-0.454-1.69-0.908-2.56-1.38-0.374-1.99-0.707-3.99-1-6-1.95-1.44-1.95-1.44-4-2v-2h-5c-0.433-0.959-0.433-0.959-0.875-1.94-0.953-2.21-0.953-2.21-3.12-3.06v-4c-3.46-0.495-3.46-0.495-7-1-0.0825-0.619-0.165-1.24-0.25-1.88-0.563-2.31-0.563-2.31-2.81-3.38-0.639-0.247-1.28-0.495-1.94-0.75v-2c-0.66-0.33-1.32-0.66-2-1l1-1c-0.825-0.412-1.65-0.825-2.5-1.25-0.825-0.578-1.65-1.15-2.5-1.75v-4c-1.32-0.33-2.64-0.66-4-1v-4c-0.99-0.33-1.98-0.66-3-1-0.33-0.99-0.66-1.98-1-3-2.97-0.495-2.97-0.495-6-1 0.613-2.96 1.25-4.38 3-7-0.802-2.67-0.802-2.67-2-5z" fill="#9333ea"/>
<path transform="translate(502,528)" d="m0 0c0.66 0.33 1.32 0.66 2 1 1.99-0.0972 1.99-0.0972 4.12-0.438 1.92-0.278 1.92-0.278 3.88-0.562-0.66 0.33-1.32 0.66-2 1v2c-1.98 0.33-3.96 0.66-6 1 0.248 0.722 0.495 1.44 0.75 2.19 0.25 2.81 0.25 2.81-1.38 5.31-0.784 0.825-1.57 1.65-2.38 2.5-0.825 0.887-1.65 1.77-2.5 2.69-2.16 2-3.73 3.36-6.5 4.31-0.66-0.33-1.32-0.66-2-1-0.625-3.06-0.625-3.06-1-6h-2v4c0.66 0.33 1.32 0.66 2 1h-8c-0.495 1.49-0.495 1.49-1 3 3.3 0.33 6.6 0.66 10 1-0.33 0.66-0.66 1.32-1 2-1.07 0.103-2.14 0.206-3.25 0.312-4.46 0.817-5.88 2.29-8.75 5.69-0.66-0.66-1.32-1.32-2-2-0.743 0.474-1.49 0.949-2.25 1.44-3.02 1.71-5.3 2.56-8.75 2.56l-4 1c-0.66 2.97-1.32 5.94-2 9h-4c-0.124 0.536-0.248 1.07-0.375 1.62-0.206 0.784-0.413 1.57-0.625 2.38-0.268 1.03-0.536 2.06-0.812 3.12-1.4 3.4-2.08 3.32-5.19 4.88-1.29 3.04-1.29 3.04-2 6h-2c3.31-20.6 23.2-41.2 37.1-55.7 1.9-1.31 1.9-1.31 4.02-1.09 1.31 0.544 2.61 1.14 3.88 1.78v3c3.79-1 6.72-1.81 10-4l1 1c0.186-1.21 0.186-1.21 0.375-2.44 0.206-0.846 0.413-1.69 0.625-2.56 0.66-0.33 1.32-0.66 2-1z" fill="#9333ea"/>
<path transform="translate(1084,828)" d="m0 0c1.48 0.99 1.48 0.99 3 2-1.48 18.3-1.48 18.3-3 37-8-3-8-3-10-5 0.99-0.495 0.99-0.495 2-1-0.33-1.32-0.66-2.64-1-4-0.652 0.0232-1.3 0.0464-1.98 0.0703-5.14 0.106-9.19-0.114-14-2.07-2.14-0.593-3.79-1-6-1 0.309-2.88 0.833-3.86 3.07-5.77 0.968-0.735 1.94-1.47 2.93-2.23 0.582-0.445 1.16-0.891 1.76-1.35 7.58-5.78 15.2-11.5 23.2-16.7z" fill="#9333ea"/>
<path transform="translate(965,1019)" d="m0 0c2.83 2.83 2.3 4.8 2.31 8.75 0.0168 1.21 0.0335 2.42 0.0508 3.67-0.39 3.84-1.57 6.21-3.36 9.58 0.495 0.99 0.495 0.99 1 2-0.99 0.99-1.98 1.98-3 3 0.495 1.48 0.495 1.48 1 3h-3c-0.33 2.97-0.66 5.94-1 9-1.11 0.289-2.23 0.578-3.38 0.875-3.63 0.817-3.63 0.817-5.62 3.12-3.12 0.125-3.12 0.125-6 0-0.495-2.47-0.495-2.47-1-5l-1 2h-2c-0.825 0.495-1.65 0.99-2.5 1.5-2.5 1.5-2.5 1.5-4.5 1.5-0.247 0.804-0.495 1.61-0.75 2.44-1.25 2.56-1.25 2.56-3.38 3.38-0.619 0.0619-1.24 0.124-1.88 0.188 0-3 0-3 1.69-4.91 0.763-0.71 1.53-1.42 2.31-2.15 4.82-4.67 8.9-9.64 13-14.9 0.886-1.11 1.77-2.22 2.66-3.32 5.3-6.62 10.2-13.3 14.8-20.4 1.56-2.23 1.56-2.23 3.56-3.23z" fill="#9333ea"/>
<path transform="translate(819,377)" d="m0 0h2c0.66 2.97 1.32 5.94 2 9h2c2.97 7.7 5.47 14.7 6 23 0.308 1.34 0.635 2.68 1 4h2c-0.66-1.32-1.32-2.64-2-4l4-2v2h2v2c1.32 0.33 2.64 0.66 4 1 0.183 4.03-0.0584 6.48-2 10-3.13-0.0807-6.25-0.194-9.38-0.312-0.889-0.0226-1.78-0.0451-2.7-0.0684-0.851-0.0354-1.7-0.0709-2.58-0.107-0.786-0.0262-1.57-0.0524-2.38-0.0793-1.97-0.432-1.97-0.432-3.97-3.43-0.303-2.34-0.303-2.34-0.379-5.09-0.0338-1.01-0.0675-2.02-0.102-3.05-0.0268-1.07-0.0537-2.14-0.0813-3.24-0.0683-2.18-0.139-4.36-0.211-6.54-0.0345-1.05-0.069-2.1-0.104-3.18-0.19-4.53-0.623-9.01-1.13-13.5 0.0131-2.68 0.631-4.13 2.01-6.39z" fill="#9333ea"/>
<path transform="translate(863,276)" d="m0 0c-0.133 0.652-0.266 1.3-0.402 1.98-0.942 4.66-1.86 9.32-2.6 14l2 1h-3c0.155 1.36 0.155 1.36 0.312 2.75-0.103 1.07-0.206 2.14-0.312 3.25-0.804 0.619-1.61 1.24-2.44 1.88-2.87 2.38-2.97 2.86-3.38 6.38-0.0928 1.86-0.0928 1.86-0.188 3.75h-5c0-3 0-3 2-5 0.33-0.99 0.66-1.98 1-3-0.66-0.99-1.32-1.98-2-3-0.125-2.69-0.125-2.69 0-5-0.99 0.33-1.98 0.66-3 1v-5l-2-1c0.33-0.33 0.66-0.66 1-1-4-0.0918-4-0.0918-8 0-0.33 0.33-0.66 0.66-1 1-1.67 0.0406-3.33 0.0427-5 0v-2c-0.928 0.99-0.928 0.99-1.88 2-2.12 2-2.12 2-4.12 2 0.33 0.99 0.66 1.98 1 3-1 1-1 1-3.56 1.06-0.804-0.0206-1.61-0.0412-2.44-0.0625 2.14-4.29 4.87-6.76 8.57-9.67 0.471-0.44 0.941-0.879 1.43-1.33v-2c1.65-0.33 3.3-0.66 5-1v2l1.76-0.586c1.62-0.539 3.23-1.08 4.85-1.61 1.95-0.651 3.89-1.32 5.83-1.99 2.56-0.812 2.56-0.812 4.56-0.812 0.33-0.99 0.66-1.98 1-3 4.2-1.96 6.03-2.3 10 0z" fill="#9333ea"/>
<path transform="translate(651,240)" d="m0 0c-0.33 1.32-0.66 2.64-1 4h-8c-0.33 0.99-0.66 1.98-1 3-2.06 0.688-2.06 0.688-4 1-0.0606 0.927-0.121 1.85-0.184 2.81-0.0838 1.2-0.168 2.4-0.254 3.63-0.0812 1.19-0.162 2.39-0.246 3.62-0.316 2.94-0.316 2.94-1.32 3.94 0.149 1.99 0.395 3.97 0.688 5.94 0.148 1.08 0.296 2.16 0.449 3.28 0.56 2.91 0.56 2.91 2.88 3.98 0.654 0.267 1.31 0.534 1.98 0.809 0.33 0.99 0.66 1.98 1 3 0.66 0.66 1.32 1.32 2 2-0.375 2.12-0.375 2.12-1 4-0.247-0.639-0.495-1.28-0.75-1.94-1.05-2.23-1.05-2.23-3.25-2.75-0.66-0.103-1.32-0.206-2-0.312-0.66-0.33-1.32-0.66-2-1v-3c-1.32-0.33-2.64-0.66-4-1v-2c-0.866-0.278-0.866-0.278-1.75-0.562-3.29-2.1-4.95-4.84-6.25-8.44-0.308-3.04-0.248-5.96 0-9h2c0.0825-0.681 0.165-1.36 0.25-2.06 1.34-5.27 3.4-9.41 8-12.4 5.72-2.86 11.7-1.78 17.8-0.562z" fill="#9333ea"/>
<path transform="translate(954,545)" d="m0 0c6.59 0.659 11.4 2.18 16 7 2.1 1.18 2.1 1.18 4 2v2c0.763 0.0619 1.53 0.124 2.31 0.188 2.69 0.812 2.69 0.812 4.38 3.25 0.433 0.846 0.866 1.69 1.31 2.56l2 2c-0.99 0.33-1.98 0.66-3 1l1 2c-1.32 0.99-2.64 1.98-4 3-0.476-0.352-0.951-0.704-1.44-1.07-6.02-4.24-12.3-7.31-19-10.3-3.23-1.47-6.39-3.01-9.55-4.61 0.33-0.66 0.66-1.32 1-2h6c-0.33-2.31-0.66-4.62-1-7z" fill="#9333ea"/>
<path transform="translate(1202 730)" d="m0 0c1.3-0.00387 1.3-0.00387 2.63-0.00781 2.24 0.133 2.24 0.133 4.24 1.13-0.33 0.66-0.66 1.32-1 2-1.65-0.66-3.3-1.32-5-2 0.0619 0.784 0.124 1.57 0.188 2.38-0.0928 1.3-0.0928 1.3-0.188 2.62-0.99 0.66-1.98 1.32-3 2-1.2 2.55-1.2 2.55-2 5h3c2.43 6.29 2.43 6.29 1 10 1.32 0.33 2.64 0.66 4 1 0.33 1.32 0.66 2.64 1 4-2.64-0.33-5.28-0.66-8-1-0.33-0.99-0.66-1.98-1-3-1.98-0.33-3.96-0.66-6-1v-2c-1.32-0.33-2.64-0.66-4-1v-2h-2c-0.176-4.48-0.221-8.03 2-12 0.99-0.33 1.98-0.66 3-1 1.3-1.15 1.3-1.15 2-4 2.99-1.16 5.95-1.13 9.12-1.12z" fill="#9333ea"/>
<path transform="translate(1218,1239)" d="m0 0h1c1.15 12 1.11 24 1 36-1.21-2.33-2.17-4.5-3-7-4.98-0.754-4.98-0.754-10-1-0.168-2.25-0.335-4.5-0.5-6.75-0.0928-1.25-0.186-2.51-0.281-3.8-0.157-2.48-0.219-4.97-0.219-7.45 0.598 0.165 1.2 0.33 1.81 0.5 2.3 0.611 2.3 0.611 5.19 0.5 0.66 0.33 1.32 0.66 2 1 0.33-1.98 0.66-3.96 1-6h2v-6z" fill="#9333ea"/>
<path transform="translate(906,1162)" d="m0 0v2c-0.99 0.66-1.98 1.32-3 2 2.97 0.495 2.97 0.495 6 1-4.09 3.4-8.38 6.33-12.8 9.25-0.693 0.459-1.39 0.918-2.1 1.39-1.69 1.12-3.39 2.24-5.09 3.36-0.33-0.66-0.66-1.32-1-2h-2c0.33-1.65 0.66-3.3 1-5-0.66-0.33-1.32-0.66-2-1 0.98-2.45 1.65-3.77 3.88-5.25 2.12-0.75 2.12-0.75 6.12-0.75v-2c3.36-3.49 6.34-3.27 11-3z" fill="#9333ea"/>
<path transform="translate(1168,1175)" d="m0 0h2v6h2c0.0588 3.17 0.0939 6.33 0.125 9.5 0.0168 0.887 0.0335 1.77 0.0508 2.69 0.0414 5.64-0.571 10.4-2.18 15.8h-1c-0.124-0.804-0.247-1.61-0.375-2.44-0.206-0.846-0.412-1.69-0.625-2.56-0.66-0.33-1.32-0.66-2-1 0.139-3.73 0.288-7.46 0.438-11.2 0.0393-1.06 0.0786-2.11 0.119-3.2 0.0419-1.02 0.0838-2.04 0.127-3.1 0.0367-0.937 0.0733-1.87 0.111-2.84 0.202-2.63 0.632-5.11 1.21-7.68z" fill="#9333ea"/>
<path transform="translate(868 527)" d="m0 0c1.89 0.0309 1.89 0.0309 3.81 0.0625 0.33 1.32 0.66 2.64 1 4h-3c1.32 0.99 2.64 1.98 4 3-2.42 0.0271-4.83 0.0469-7.25 0.0625-1.02 0.0126-1.02 0.0126-2.07 0.0254-3.4 0.0165-6.42-0.136-9.68-1.09h-3c0.33-1.65 0.66-3.3 1-5l5.96 0.0977c3.22-0.154 5.93-1.21 9.23-1.16z" fill="#9333ea"/>
<path transform="translate(738,289)" d="m0 0c2.25 0.22 4.5 0.405 6.75 0.562 1.17 0.0838 2.34 0.168 3.55 0.254 0.892 0.0606 1.78 0.121 2.7 0.184-0.746 2.41-0.746 2.41-2 5-2.66 1.34-5.01 1.53-8 2-0.33-0.33-0.66-0.66-1-1-1.35-0.231-2.7-0.412-4.06-0.562-1.3-0.144-2.6-0.289-3.94-0.438v-1c1.65-0.33 3.3-0.66 5-1-0.639-0.103-1.28-0.206-1.94-0.312-0.681-0.227-1.36-0.454-2.06-0.688-0.33-0.99-0.66-1.98-1-3 2.58-1.29 3.25-0.717 6 0z" fill="#9333ea"/>
<path transform="translate(1166,1210)" d="m0 0h4c0.33 6.27 0.66 12.5 1 19-0.66 0.33-1.32 0.66-2 1-0.652 2.02-0.652 2.02-1 4h-2v-24z" fill="#9333ea"/>
<path transform="translate(619,1160)" d="m0 0c0.681 0.309 1.36 0.619 2.06 0.938 3.31 1.2 6.45 1.65 9.94 2.06 0.33 0.99 0.66 1.98 1 3 0.959 0.217 0.959 0.217 1.94 0.438 2.06 0.562 2.06 0.562 3.31 2.62 0.247 0.639 0.495 1.28 0.75 1.94-1.61 0.707-1.61 0.707-4 1-3.02-1.36-3.02-1.36-6.25-3.31-1.08-0.636-2.16-1.27-3.27-1.93-0.82-0.581-1.64-1.16-2.48-1.76v-2c-0.99-0.33-1.98-0.66-3-1v-2z" fill="#9333ea"/>
<path transform="translate(1170,1181)" d="m0 0h2c0.0588 3.17 0.0939 6.33 0.125 9.5 0.0168 0.887 0.0335 1.77 0.0508 2.69 0.0414 5.64-0.571 10.4-2.18 15.8h-1c-0.0289-4.29-0.0468-8.58-0.0625-12.9-0.00838-1.22-0.0168-2.45-0.0254-3.71-0.00322-1.17-0.00645-2.33-0.00977-3.54-0.00524-1.08-0.0105-2.16-0.0159-3.27 0.114-2.61 0.114-2.61 1.11-4.61z" fill="#9333ea"/>
<path transform="translate(872,410)" d="m0 0h1v10c-6.6 0.865-13.4 1.67-20 1-0.66-0.66-1.32-1.32-2-2 0.908-0.144 1.82-0.289 2.75-0.438 3.05-0.445 3.05-0.445 5.12-1.19 2.27-0.401 3.91-0.198 6.19 0.125 3.83 0.776 3.83 0.776 6.94-0.5v-7z" fill="#9333ea"/>
<path transform="translate(555,1025)" d="m0 0h2c1.29 1.46 1.29 1.46 2.62 3.38 0.669 0.94 0.669 0.94 1.35 1.9 1.02 1.73 1.02 1.73 1.02 3.73l-4 2c-2.76-2.04-3.03-3.16-3.75-6.62-0.0825-1.11-0.165-2.23-0.25-3.38 0.33-0.33 0.66-0.66 1-1z" fill="#9333ea"/>
<path transform="translate(1169,1210)" d="m0 0h1c0.33 6.27 0.66 12.5 1 19h-3c-0.0269-2.79-0.0468-5.58-0.0625-8.38-0.00838-0.794-0.0168-1.59-0.0254-2.41-0.0254-5.99-0.0254-5.99 1.09-8.22z" fill="#9333ea"/>
<path transform="translate(525,971)" d="m0 0c2.79 3.43 4.78 7.19 6.75 11.1 0.329 0.633 0.657 1.27 0.996 1.92 0.816 1.62 1.54 3.29 2.25 4.96-0.33 0.66-0.66 1.32-1 2-5.42-6.6-9-11.3-9-20z" fill="#9333ea"/>
<path transform="translate(729,289)" d="m0 0c0.33 0.99 0.66 1.98 1 3-1.71 2.11-2.52 2.94-5.26 3.29-0.801-0.0348-1.6-0.0696-2.43-0.105-0.808-0.0271-1.62-0.0541-2.45-0.082-0.615-0.0348-1.23-0.0696-1.86-0.105v-3c1.46-0.504 2.92-1 4.38-1.5 0.812-0.278 1.62-0.557 2.46-0.844 2.16-0.656 2.16-0.656 4.16-0.656z" fill="#9333ea"/>
<path transform="translate(1020,891)" d="m0 0 10 2v3c-2.76 0.597-5.16 1-8 1-0.66-1.98-1.32-3.96-2-6zm11 0 2 1z" fill="#9333ea"/>
<path transform="translate(638,1173)" d="m0 0c3.45 0.664 6.86 1.4 10.2 2.31 0.871 0.223 1.74 0.446 2.64 0.676 2.11 1.01 2.11 1.01 2.91 3.12 0.067 0.625 0.134 1.25 0.203 1.89-2.34-0.256-4.68-0.593-7-1l-1-2c-1.88-0.903-1.88-0.903-4.06-1.62-0.733-0.26-1.47-0.521-2.22-0.789-0.566-0.193-1.13-0.387-1.71-0.586v-2z" fill="#9333ea"/>
<path transform="translate(856,339)" d="m0 0c4.27 4.75 9 11.4 9 18-0.99-0.33-1.98-0.66-3-1-1.12-2.33-2.07-4.6-3-7-0.559-1.25-1.12-2.5-1.69-3.75-1.31-3.25-1.31-3.25-1.31-6.25z" fill="#9333ea"/>
<path transform="translate(1029,1034)" d="m0 0c1 3 1 3 0.00391 5.04-0.476 0.708-0.951 1.42-1.44 2.14-0.473 0.715-0.946 1.43-1.43 2.17-0.373 0.543-0.745 1.09-1.13 1.64-0.99-0.33-1.98-0.66-3-1 0.375-2.44 0.375-2.44 1-5 0.66-0.33 1.32-0.66 2-1v-2c1.32-0.66 2.64-1.32 4-2z" fill="#9333ea"/>
<path transform="translate(860,235)" d="m0 0c0.99 0.33 1.98 0.66 3 1 0.33 2.31 0.66 4.62 1 7-0.99 0.33-1.98 0.66-3 1-0.66-0.33-1.32-0.66-2-1v-2h-2c1.88-4.88 1.88-4.88 3-6z" fill="#9333ea"/>
<path transform="translate(548,1101)" d="m0 0c2.49 1.2 4.68 2.45 7 4v2c0.639 0.124 1.28 0.247 1.94 0.375 0.681 0.206 1.36 0.412 2.06 0.625l1 2c-2.81 0.312-2.81 0.312-6 0-1.69-2.38-1.69-2.38-3-5-0.99-0.66-1.98-1.32-3-2v-2z" fill="#9333ea"/>
<path transform="translate(851,282)" d="m0 0c2 2 2 2 2.12 5.12-0.0412 0.949-0.0825 1.9-0.125 2.88h-6v-6h4v-2z" fill="#9333ea"/>
<path transform="translate(934,1058)" d="m0 0c0 3.78-1.05 5.79-3 9-2.19 0.875-2.19 0.875-4 1 0-3 0-3 1.53-4.82 0.65-0.615 1.3-1.23 1.97-1.86 0.65-0.623 1.3-1.25 1.97-1.89 0.758-0.706 0.758-0.706 1.53-1.43z" fill="#9333ea"/>
<path transform="translate(1036,657)" d="m0 0h2c1.04 6.23 0.833 11.7 0 18-0.66-0.33-1.32-0.66-2-1v-17z" fill="#9333ea"/>
<path transform="translate(866,361)" d="m0 0c2.62 2.62 2.58 4.49 3.12 8.12 0.168 1.1 0.335 2.19 0.508 3.32 0.121 0.843 0.242 1.69 0.367 2.55-1.95-0.828-1.95-0.828-4-2-1.26-4.25-0.92-7.71 0-12z" fill="#9333ea"/>
<path transform="translate(1007,600)" d="m0 0h2v3h2c2.03 3.73 3 5.67 3 10h-2c-0.838-1.79-1.67-3.58-2.5-5.38-0.696-1.5-0.696-1.5-1.41-3.02-1.09-2.6-1.09-2.6-1.09-4.6z" fill="#9333ea"/>
<path transform="translate(1e3 590)" d="m0 0c0.598 0.309 1.2 0.619 1.81 0.938 2.28 1.16 2.28 1.16 5.19 2.06 1.19 2.06 1.19 2.06 2 4h-2v2h-2c-1.29-1.46-1.29-1.46-2.62-3.38-0.446-0.626-0.892-1.25-1.35-1.9-1.02-1.73-1.02-1.73-1.02-3.73z" fill="#9333ea"/>
<path transform="translate(1203,749)" d="m0 0h3v2c0.763 0.144 1.53 0.289 2.31 0.438 2.69 0.562 2.69 0.562 5.69 1.56-0.33 0.99-0.66 1.98-1 3-3.57-0.325-5.56-0.639-8.38-2.94-1.62-2.06-1.62-2.06-1.62-4.06z" fill="#9333ea"/>
<path transform="translate(1024,644)" d="m0 0c0.667 2.67 1.33 5.33 2 8-0.99 0.495-0.99 0.495-2 1-0.66 1.32-1.32 2.64-2 4-0.33-3.63-0.66-7.26-1-11 0.99-0.66 1.98-1.32 3-2z" fill="#9333ea"/>
<path transform="translate(537,564)" d="m0 0c2 3 2 3 2 6-1.98 0.99-3.96 1.98-6 3 0.33-2.64 0.66-5.28 1-8 0.99-0.33 1.98-0.66 3-1z" fill="#9333ea"/>
<path transform="translate(748,328)" d="m0 0c0.33 0.66 0.66 1.32 1 2h-6c0.33 1.32 0.66 2.64 1 4h-5l2-1v-2h-2v-2c2.96-1.48 5.74-1.06 9-1z" fill="#9333ea"/>
<path transform="translate(968,1012)" d="m0 0c0.99 0.33 1.98 0.66 3 1v3c0.99 0.66 1.98 1.32 3 2-0.99 0.33-1.98 0.66-3 1-0.33 0.66-0.66 1.32-1 2-0.66-0.33-1.32-0.66-2-1v-2c-0.66-0.66-1.32-1.32-2-2 0.66-1.32 1.32-2.64 2-4z" fill="#9333ea"/>
<path transform="translate(1148,384)" d="m0 0c0.66 0.33 1.32 0.66 2 1v9h-3c-0.0269-1.48-0.0463-2.96-0.0625-4.44-0.0116-0.824-0.0232-1.65-0.0352-2.5 0.0977-2.07 0.0977-2.07 1.1-3.07z" fill="#9333ea"/>
<path transform="translate(944,1124)" d="m0 0c-0.33 0.99-0.66 1.98-1 3-3.3 0.33-6.6 0.66-10 1 0.33-1.32 0.66-2.64 1-4 0.33 0.33 0.66 0.66 1 1 1.11-0.351 2.23-0.701 3.38-1.06 3.62-0.938 3.62-0.938 5.62 0.0625z" fill="#9333ea"/>
</svg>